<?xml version="1.0" encoding="UTF-8"?>
<svg width="24px" height="24px" viewBox="0 0 24 24" version="1.1" xmlns="http://www.w3.org/2000/svg" xmlns:xlink="http://www.w3.org/1999/xlink">
    <title>icons/flags/ita</title>
    <g id="icons/flags/ita" stroke="none" stroke-width="1" fill="none" fill-rule="evenodd">
        <g id="013-italy" transform="translate(1.000000, 0.000000)" fill-rule="nonzero">
            <path d="M20.4325313,5.39296875 L14.1419062,1.76240625 L11.4718594,0.221484375 C10.9599844,-0.073921875 10.3294687,-0.073828125 9.81778125,0.221765625 L7.0344375,1.82929688 L0.85875,5.39615625 C0.347015625,5.69170313 0.031921875,6.23779687 0.031921875,6.82875 L0.033609375,17.1746719 C0.03375,17.765625 0.349078125,18.311625 0.86090625,18.6070313 L7.03439063,22.1699063 L9.82157813,23.7785156 C10.3334531,24.0739219 10.9639687,24.0737344 11.4756563,23.7782344 L14.1418125,22.2383438 L20.4346406,18.60375 C20.8891406,18.34125 21.1880156,17.8808906 21.2492344,17.3672344 L21.2492344,6.6470625 C21.1928437,6.12623438 20.892375,5.658375 20.4325313,5.39296875 Z" id="Path" fill="#F5F5F5"></path>
            <path d="M0.85875,5.39615625 C0.347015625,5.69170312 0.031921875,6.23779687 0.031921875,6.82875 L0.033609375,17.1746719 C0.03375,17.765625 0.349078125,18.311625 0.86090625,18.6070312 L7.03439063,22.1699062 L7.03439063,1.82925 L0.85875,5.39615625 Z" id="Path" fill="#73AF00"></path>
            <path d="M20.4325313,5.39296875 L14.1419062,1.76240625 L14.1419062,22.2383906 L20.4347344,18.6037969 C20.8892344,18.3412969 21.1881094,17.8809375 21.2493281,17.3672812 L21.2493281,6.6470625 C21.1928437,6.12623438 20.892375,5.658375 20.4325313,5.39296875 Z" id="Path" fill="#FF4B55"></path>
        </g>
    </g>
</svg>