<?xml version="1.0" encoding="UTF-8"?>
<svg width="20px" height="21px" viewBox="0 0 20 21" version="1.1" xmlns="http://www.w3.org/2000/svg" xmlns:xlink="http://www.w3.org/1999/xlink">
    <title>8CE8426D-8828-4037-99AC-F6D1180BE61C</title>
    <g id="Dsk-Shopping" stroke="none" stroke-width="1" fill="none" fill-rule="evenodd">
        <g id="Home" transform="translate(-1345.000000, -141.000000)">
            <rect fill="#FFFFFF" x="0" y="0" width="1440" height="4903"></rect>
            <rect id="Rectangle" fill="#160E2F" x="0" y="126" width="1440" height="50"></rect>
            <g id="nav/primary-small" transform="translate(1230.000000, 126.000000)">
                <rect id="Rectangle" fill="#552AEE" x="0" y="0" width="210" height="50"></rect>
                <g id="icons/arrow-right" transform="translate(115.000000, 15.625000)" fill="#FFFFFF" fill-rule="nonzero">
                    <g id="arrow-left" transform="translate(10.000000, 10.000000) scale(-1, 1) translate(-10.000000, -10.000000) translate(4.166667, 4.166667)">
                        <path d="M6.42258898,-0.589255651 C6.72299229,-0.28885235 6.74610023,0.183840197 6.49191282,0.510749536 L6.42258898,0.589255651 L2.01166667,4.99966667 L11.6666667,5 C12.126904,5 12.5,5.37309604 12.5,5.83333333 C12.5,6.26069653 12.1782998,6.61292263 11.7638509,6.66106022 L11.6666667,6.66666667 L2.01266667,6.66666667 L6.42258898,11.077411 C6.72299229,11.3778143 6.74610023,11.8505069 6.49191282,12.1774162 L6.42258898,12.2559223 C6.12218568,12.5563256 5.64949314,12.5794336 5.3225838,12.3252462 L5.24407768,12.2559223 L-0.589255651,6.42258898 C-0.61891067,6.39234409 -0.640648387,6.36731997 -0.660855673,6.34105725 L-0.589255651,6.42258898 C-0.621337557,6.39050708 -0.650256796,6.35646014 -0.676013367,6.32083561 C-0.718610755,6.26175851 -0.753708569,6.19692522 -0.779852794,6.12769717 C-0.786104953,6.11103681 -0.791785493,6.09435164 -0.796922475,6.07753604 C-0.802586001,6.05926951 -0.807721642,6.04012629 -0.812179946,6.02072443 C-0.815890932,6.00418859 -0.819062818,5.98818493 -0.82176235,5.97211738 C-0.82531007,5.95142093 -0.828069847,5.93000958 -0.830001682,5.90835996 C-0.831544492,5.89086658 -0.832571837,5.87319935 -0.833039771,5.85552006 C-0.833236416,5.84814618 -0.833333333,5.84075108 -0.833333333,5.83333333 L-0.832836639,5.80447581 C-0.832145619,5.78440846 -0.830733572,5.76436131 -0.828600496,5.74437655 L-0.833333333,5.83333333 C-0.833333333,5.78185229 -0.828665109,5.73146156 -0.819728875,5.68256138 C-0.816993518,5.66792352 -0.813755397,5.6525933 -0.810082019,5.63734654 C-0.792246212,5.56326629 -0.764716866,5.49354174 -0.728881576,5.42906924 C-0.724916247,5.4218089 -0.721036748,5.41505782 -0.717054987,5.40835059 C-0.702680583,5.38427934 -0.687113717,5.36085864 -0.670436323,5.33830907 C-0.666894604,5.33341469 -0.662774816,5.32797939 -0.65857949,5.3225838 L-0.639793987,5.29934629 C-0.626590501,5.28354364 -0.612812494,5.2682376 -0.598492073,5.25346027 L-0.589255651,5.24407768 L5.24407768,-0.589255651 C5.56951459,-0.914692561 6.09715207,-0.914692561 6.42258898,-0.589255651 Z" id="Combined-Shape"></path>
                    </g>
                </g>
            </g>
        </g>
    </g>
</svg>