<?xml version="1.0" encoding="UTF-8"?>
<svg width="16px" height="17px" viewBox="0 0 16 17" version="1.1" xmlns="http://www.w3.org/2000/svg" xmlns:xlink="http://www.w3.org/1999/xlink">
    <title>5E2D337C-A197-40F8-9140-FB694F50C670</title>
    <g id="Dsk-Shopping" stroke="none" stroke-width="1" fill="none" fill-rule="evenodd">
        <g id="Home" transform="translate(-299.000000, -1252.000000)">
            <rect fill="#FFFFFF" x="0" y="0" width="1440" height="4903"></rect>
            <g id="elements/product-widget" transform="translate(121.000000, 839.000000)">
                <rect id="Rectangle" stroke="#F0EFF3" fill="#FFFFFF" x="0.5" y="0.5" width="219" height="449" rx="24"></rect>
                <g id="nav/primary-small" transform="translate(165.809091, 404.000000)">
                    <rect id="Rectangle" stroke="#552AEE" x="0.5" y="0.5" width="41.3818182" height="33" rx="16.5"></rect>
                    <g id="icons/cart-add" transform="translate(12.190816, 9.849907)" fill="#552AEE">
                        <path d="M1.01708155,0.0995567101 C1.95410652,0.67829303 3.00093675,1.86873337 3.55410098,3.00051585 L9.3016989,3.0000926 C9.66988874,3.0000926 9.96836557,3.29856944 9.96836557,3.66675927 C9.96836557,4.00864983 9.71100544,4.29043071 9.37944632,4.32894078 L9.3016989,4.33342594 L3.93437164,4.33350015 C3.98131956,4.73567052 4.00180612,5.21611243 3.99676725,5.77723406 L3.98821669,6.21324036 L3.97018184,6.6797273 C3.96639055,6.76002773 3.96220774,6.84160758 3.95763523,6.92447158 L3.92553845,7.43710282 L3.88417674,7.98077913 L3.83363784,8.55572628 L3.77400949,9.16217002 C3.63755705,10.9418178 4.43641695,11.9385607 5.96941104,11.9973352 L6.11527388,12.0000926 L10.61705,12.0000926 C11.9276172,12.0000926 13.0757073,11.176213 13.4659428,9.98273585 L13.5061533,9.84862937 L14.0236491,7.95393988 C14.1206593,7.59875995 14.4872318,7.38947201 14.8424117,7.48648217 C15.1722216,7.57656304 15.376237,7.89907265 15.3260275,8.22906279 L15.3098694,8.30524476 L14.7923736,10.1999343 C14.3018133,11.9960055 12.6717981,13.2574648 10.788895,13.3301146 L10.61705,13.3334259 L6.11527388,13.3334259 C3.6840423,13.3334259 2.24636276,11.6454142 2.4461359,9.04289578 L2.49775929,8.51956517 L2.5422791,8.02146646 L2.5797624,7.54880665 L2.61027628,7.10179275 L2.63388783,6.68063175 L2.65066413,6.28553067 L2.66067226,5.91669651 C2.66177999,5.85742456 2.66260851,5.79925569 2.66315922,5.74219422 L2.66314088,5.41314857 L2.65652208,5.11088736 L2.64336989,4.83561758 C2.61604238,4.39944249 2.56177198,4.07659424 2.48195625,3.87138543 C2.10665742,2.90648008 1.11650034,1.72810631 0.316436991,1.23396183 C0.00317966655,1.04048418 -0.0939209426,0.629694315 0.0995567101,0.316436991 C0.293034363,0.00317966655 0.703824226,-0.0939209426 1.01708155,0.0995567101 Z M14.7216692,1.0678566 L14.7339644,1.18065531 L14.7332364,2.69606443 L16.2470311,2.69701821 C16.5607812,2.69701821 16.8205122,2.92822645 16.8651431,3.22956196 L16.8719182,3.32190535 C16.8719182,3.6356555 16.64071,3.89538648 16.3393745,3.94001732 L16.2470311,3.94679249 L14.7332364,3.94606443 L14.7339644,5.45985913 C14.7339644,5.77360928 14.5027562,6.03334026 14.2014207,6.0779711 L14.1090773,6.08474627 C13.7953271,6.08474627 13.5355962,5.85353803 13.4909653,5.55220252 L13.4841902,5.45985913 L13.4832364,3.94606443 L11.9678273,3.94679249 C11.1788031,3.9156374 11.1406637,2.84016979 11.8550286,2.70931346 L11.9678273,2.69701821 L13.4832364,2.69606443 L13.4841902,1.18065531 C13.5153452,0.39163115 14.5908129,0.35349178 14.7216692,1.0678566 Z M6.28027083,15.2161925 C6.28027083,14.7848016 5.93055274,14.4350835 5.49916191,14.4350835 C4.4627241,14.4763573 4.46363019,15.9564338 5.49916191,15.9973014 C5.93055274,15.9973014 6.28027083,15.6475833 6.28027083,15.2161925 Z M12.4978978,15.2161925 C12.4978978,14.7848016 12.1481798,14.4350835 11.7167889,14.4350835 C10.6803511,14.4763573 10.6812572,15.9564338 11.7167889,15.9973014 C12.1481798,15.9973014 12.4978978,15.6475833 12.4978978,15.2161925 Z" id="Shape"></path>
                    </g>
                    <text id="Buy-Now" font-family="Poppins-SemiBold, Poppins" font-size="13" font-weight="500"></text>
                </g>
            </g>
        </g>
    </g>
</svg>