<?xml version="1.0" encoding="UTF-8"?>
<svg width="20px" height="20px" viewBox="0 0 20 20" version="1.1" xmlns="http://www.w3.org/2000/svg" xmlns:xlink="http://www.w3.org/1999/xlink">
    <title>4CAAF332-1F3A-4BF5-909B-97426EF498C3</title>
    <g id="Dsk-Shopping" stroke="none" stroke-width="1" fill="none" fill-rule="evenodd">
        <g id="Home" transform="translate(-590.000000, -771.000000)">
            <rect fill="#FFFFFF" x="0" y="0" width="1440" height="4903"></rect>
            <g id="nav/title-break" transform="translate(120.500000, 763.000000)"></g>
            <g id="icons/nintendo" transform="translate(590.000000, 771.000000)" fill="#BCB7CC">
                <path d="M14.1666667,1.66666667 C16.9280904,1.66666667 19.1666667,3.90524292 19.1666667,6.66666667 L19.1666667,13.3333333 C19.1666667,16.0947571 16.9280904,18.3333333 14.1666667,18.3333333 L6.66666667,18.3333333 C3.90524292,18.3333333 1.66666667,16.0947571 1.66666667,13.3333333 L1.66666667,6.66666667 C1.66666667,3.90524292 3.90524292,1.66666667 6.66666667,1.66666667 L14.1666667,1.66666667 Z M9.58266667,10.8326667 L3.33266667,10.8326667 L3.33333333,13.3333333 C3.33333333,15.1184962 4.73664039,16.5758991 6.50029971,16.6625872 L6.66666667,16.6666667 L9.58266667,16.6656667 L9.58266667,10.8326667 Z M17.4996667,10.8326667 L11.2496667,10.8326667 L11.2496667,16.6656667 L14.1666667,16.6666667 C15.9518295,16.6666667 17.4092324,15.2633596 17.4959206,13.4997003 L17.5,13.3333333 L17.4996667,10.8326667 Z M9.58266667,3.33266667 L6.66666667,3.33333333 C4.88150384,3.33333333 3.42410094,4.73664039 3.33741276,6.50029971 L3.33333333,6.66666667 L3.33266667,9.16566667 L9.58266667,9.16566667 L9.58266667,3.33266667 Z M14.1666667,3.33333333 L11.2496667,3.33266667 L11.2496667,9.16566667 L17.4996667,9.16566667 L17.5,6.66666667 C17.5,4.88150384 16.0966929,3.42410094 14.3330336,3.33741276 L14.1666667,3.33333333 Z" id="Combined-Shape"></path>
            </g>
        </g>
    </g>
</svg>