<?xml version="1.0" encoding="UTF-8"?>
<svg width="18px" height="18px" viewBox="0 0 18 18" version="1.1" xmlns="http://www.w3.org/2000/svg" xmlns:xlink="http://www.w3.org/1999/xlink">
    <title>C2F0DF61-ACD8-4CB3-8BA2-4420B81BEB33</title>
    <g id="Dsk-Shopping" stroke="none" stroke-width="1" fill="none" fill-rule="evenodd">
        <g id="Home" transform="translate(-976.000000, -56.000000)">
            <rect fill="#FFFFFF" x="0" y="0" width="1440" height="4903"></rect>
            <g id="nav/header-web" transform="translate(119.999717, 0.000000)">
                <rect id="Rectangle" fill="#FFFFFF" fill-rule="nonzero" x="0.000283018868" y="0" width="1200" height="126"></rect>
                <g id="elements/icon-box" transform="translate(811.000283, 38.000000)" fill="#FFFFFF" fill-rule="nonzero">
                    <rect id="Rectangle" x="0" y="0" width="54" height="54" rx="24"></rect>
                </g>
                <g id="icons/chevron" transform="translate(856.000283, 56.000000)" fill="#88819F">
                    <path d="M10.7196699,3.96966991 C11.0125631,3.6767767 11.4874369,3.6767767 11.7803301,3.96966991 C12.0506931,4.24003289 12.0714902,4.66545618 11.8427215,4.95967458 L11.7803301,5.03033009 L7.81125,9 L11.7803301,12.9696699 C12.0506931,13.2400329 12.0714902,13.6654562 11.8427215,13.9596746 L11.7803301,14.0303301 C11.5099671,14.3006931 11.0845438,14.3214902 10.7903254,14.0927215 L10.7196699,14.0303301 L6.21966991,9.53033009 C5.94930694,9.25996711 5.92850979,8.83454382 6.15727846,8.54032542 L6.21966991,8.46966991 L10.7196699,3.96966991 Z" id="Path" transform="translate(9.000000, 9.000000) scale(1, -1) rotate(-270.000000) translate(-9.000000, -9.000000) "></path>
                </g>
            </g>
        </g>
    </g>
</svg>