<?xml version="1.0" encoding="UTF-8"?>
<svg width="36px" height="36px" viewBox="0 0 36 36" version="1.1" xmlns="http://www.w3.org/2000/svg" xmlns:xlink="http://www.w3.org/1999/xlink">
    <title>175DCF36-B85F-4CD1-80B6-D1B002176020</title>
    <defs>
        <rect id="path-1" x="0" y="0" width="1200" height="120" rx="24"></rect>
        <filter x="-2.5%" y="-25.0%" width="105.0%" height="150.0%" filterUnits="objectBoundingBox" id="filter-2">
            <feOffset dx="0" dy="0" in="SourceAlpha" result="shadowOffsetOuter1"></feOffset>
            <feGaussianBlur stdDeviation="10" in="shadowOffsetOuter1" result="shadowBlurOuter1"></feGaussianBlur>
            <feColorMatrix values="0 0 0 0 0.0870435499   0 0 0 0 0.055175793   0 0 0 0 0.182646821  0 0 0 0.08 0" type="matrix" in="shadowBlurOuter1"></feColorMatrix>
        </filter>
    </defs>
    <g id="Dsk-Shopping" stroke="none" stroke-width="1" fill="none" fill-rule="evenodd">
        <g id="Home" transform="translate(-493.000000, -1935.000000)">
            <rect fill="#FFFFFF" x="0" y="0" width="1440" height="4903"></rect>
            <g id="Group" transform="translate(120.000000, 1894.000000)">
                <g id="Rectangle">
                    <use fill="black" fill-opacity="1" filter="url(#filter-2)" xlink:href="#path-1"></use>
                    <use fill="#FFFFFF" fill-rule="evenodd" xlink:href="#path-1"></use>
                </g>
                <g id="elements/usp-dark" transform="translate(373.000000, 20.000000)" fill="#EE004C">
                    <g id="icons/search" transform="translate(0.000000, 21.000000)">
                        <path d="M18.0035624,16.5102938 C18.7723856,16.5102938 19.4060377,17.08903 19.4926369,17.8346206 L19.5027229,18.0094543 L19.502,27.882 L22.9401378,24.4451903 C23.4805611,23.904767 24.3309315,23.8631959 24.919039,24.3204772 L25.0602709,24.4451903 C25.6006942,24.9856136 25.6422652,25.835984 25.184984,26.4240915 L25.0602709,26.5653234 L19.0636289,32.5619654 L19.0455252,32.5797669 C19.0253996,32.5992262 19.0047306,32.6181269 18.9835432,32.6364441 L19.0636289,32.5619654 C19.0203345,32.6052598 18.9750509,32.6453526 18.9280722,32.6822438 C18.9105618,32.6958748 18.8925772,32.7093478 18.8742865,32.7224198 C18.8542674,32.7368768 18.8341234,32.7505427 18.8137308,32.7636645 C18.7952459,32.7753982 18.7767083,32.786762 18.7579105,32.7977285 C18.7357409,32.8108035 18.7129602,32.8232991 18.6899367,32.8351587 C18.667051,32.8468562 18.6442166,32.857904 18.6210686,32.868381 C18.6040023,32.8761261 18.5871036,32.8833795 18.5701034,32.8903079 C18.5424891,32.9016058 18.5139567,32.9122691 18.485028,32.9220733 C18.4671285,32.9280409 18.4497151,32.9335675 18.4322255,32.9387684 C18.4040634,32.9472745 18.3752041,32.9549472 18.3460168,32.9617673 C18.3303549,32.9652906 18.3146902,32.9686851 18.298985,32.9718265 C18.2593257,32.9798739 18.2194999,32.9861774 18.1791857,32.9908815 C18.1727667,32.9915499 18.1667302,32.9922193 18.1606906,32.9928521 C18.1093036,32.9982888 18.0567565,33.0010593 18.0035624,33.0010593 L17.8876819,32.9966015 C17.8846915,32.9963711 17.8817016,32.9961317 17.8787124,32.9958834 L18.0035624,33.0010593 C17.9257812,33.0010593 17.8493836,32.9951358 17.774796,32.9837154 C17.760707,32.9814436 17.7463489,32.979028 17.7320216,32.9764026 C17.7119197,32.9728548 17.6917487,32.9687318 17.6717296,32.9642083 C17.5897115,32.9455501 17.5088004,32.920003 17.4300982,32.8874661 C17.3553668,32.8565127 17.2835254,32.8195916 17.2153238,32.777353 C17.1981271,32.7668632 17.1809585,32.7557438 17.1639736,32.7442379 C17.1395997,32.7275663 17.1160981,32.7106265 17.0931202,32.6930369 C17.0905666,32.6912012 17.087644,32.688946 17.0847277,32.6866784 L17.0574481,32.6648657 C17.0224318,32.6363441 16.988728,32.6062726 16.9564415,32.5747558 L16.9434958,32.5619654 L10.9468538,26.5653234 C10.3613952,25.9798648 10.3613952,25.0306489 10.9468538,24.4451903 C11.4872771,23.904767 12.3376475,23.8631959 12.925755,24.3204772 L13.0669869,24.4451903 L16.504,27.882 L16.5044019,18.0094543 C16.5044019,17.1814909 17.1755989,16.5102938 18.0035624,16.5102938 Z M15.0364596,3.08899563 C20.1619537,3.67933727 24.4616316,7.13038688 26.1854287,11.9160335 L26.2174627,12.0128123 L26.9973527,12.0128128 C30.7985063,12.0098395 34.17664,14.3941511 35.461508,17.9438646 L35.5792594,18.2909823 C36.7643748,22.0315028 35.3880986,26.1086317 32.1784514,28.3656555 C31.501177,28.8419148 30.5660532,28.6789599 30.0897938,28.0016856 C29.6135345,27.3244112 29.7764894,26.3892873 30.4537638,25.913028 C32.5935287,24.4083455 33.5110461,21.6902596 32.7209691,19.1965792 C31.9624953,16.8026461 29.798333,15.1458715 27.3110414,15.0189705 L26.9985253,15.0111333 L25.1095831,15.0111333 C24.425129,15.0111333 23.8275819,14.547556 23.6574652,13.8845795 C22.576983,9.67373862 19.0120919,6.56504218 14.6933885,6.06762468 C10.3746852,5.57020718 6.19640992,7.78706501 4.18693043,11.6420118 C2.17745093,15.4969587 2.75285448,20.1917806 5.63380811,23.4473496 C6.18250484,24.0673943 6.12466588,25.0148464 5.50462119,25.5635431 C4.88457649,26.1122398 3.93712437,26.0544009 3.38842764,25.4343562 C-0.315655606,21.2486247 -1.05546016,15.212425 1.52815633,10.2560648 C4.11177282,5.29970462 9.48384099,2.44945885 15.0364596,3.08899563 Z" id="Combined-Shape"></path>
                    </g>
                </g>
            </g>
        </g>
    </g>
</svg>