<?xml version="1.0" encoding="UTF-8"?>
<svg width="24px" height="24px" viewBox="0 0 24 24" version="1.1" xmlns="http://www.w3.org/2000/svg" xmlns:xlink="http://www.w3.org/1999/xlink">
    <title>97D756F0-8363-45B3-A27B-4D27D477345F</title>
    <g id="Dsk-Shopping" stroke="none" stroke-width="1" fill="none" fill-rule="evenodd">
        <g id="Home" transform="translate(-1134.000000, -4719.000000)">
            <rect fill="#FFFFFF" x="0" y="0" width="1440" height="4903"></rect>
            <g id="footer" transform="translate(0.000000, 4472.813853)">
                <g id="elements/icon-box" transform="translate(1119.000000, 231.186147)">
                    <rect id="Rectangle" stroke="#D7D4DF" x="0.5" y="0.5" width="53" height="53" rx="24"></rect>
                    <g id="icons/search" transform="translate(15.000000, 15.000000)" fill="#160E2F">
                        <g id="instagram" transform="translate(2.000000, 2.000000)">
                            <path d="M15,-1 C18.3137085,-1 21,1.6862915 21,5 L21,5 L21,15 C21,18.3137085 18.3137085,21 15,21 L15,21 L5,21 C1.6862915,21 -1,18.3137085 -1,15 L-1,15 L-1,5 C-1,1.6862915 1.6862915,-1 5,-1 L5,-1 Z M15,1 L5,1 C2.790861,1 1,2.790861 1,5 L1,5 L1,15 C1,17.209139 2.790861,19 5,19 L5,19 L15,19 C17.209139,19 19,17.209139 19,15 L19,15 L19,5 C19,2.790861 17.209139,1 15,1 L15,1 Z M5.57709117,7.70878336 C6.54687783,5.78203422 8.64296899,4.69441347 10.7766835,5.01081652 C12.9554044,5.33389346 14.6661065,7.04459556 14.9891835,9.22331652 C15.3055865,11.357031 14.2179658,13.4531222 12.2912166,14.4229088 C10.3644675,15.3926955 8.03299419,15.0175298 6.50773217,13.4922678 C4.98247016,11.9670058 4.60730452,9.63553251 5.57709117,7.70878336 Z M10.2915332,6.96698295 C9.07901181,6.86585759 7.91633953,7.50971657 7.36356114,8.60796358 C6.78168914,9.76401307 7.00678853,11.1628971 7.92194574,12.0780543 C8.83710295,12.9932115 10.2359869,13.2183109 11.3920364,12.6364389 C12.5480859,12.0545669 13.2006583,10.7969122 13.0108165,9.51668348 C12.8169704,8.2094509 11.7905491,7.18302964 10.4833165,6.98918348 L10.4833165,6.98918348 Z M15.51,3.5 C16.0622847,3.5 16.51,3.94771525 16.51,4.5 C16.51,5.01283584 16.1239598,5.43550716 15.6266211,5.49327227 L15.5,5.5 C14.9477153,5.5 14.5,5.05228475 14.5,4.5 C14.5,3.98716416 14.8860402,3.56449284 15.3833789,3.50672773 L15.51,3.5 Z" id="Combined-Shape"></path>
                        </g>
                    </g>
                </g>
            </g>
        </g>
    </g>
</svg>