<?xml version="1.0" encoding="UTF-8"?>
<svg width="20px" height="20px" viewBox="0 0 20 20" version="1.1" xmlns="http://www.w3.org/2000/svg" xmlns:xlink="http://www.w3.org/1999/xlink">
    <title>E479352B-63EC-44D9-A54A-E30FFC0B6C94</title>
    <g id="Dsk-Shopping" stroke="none" stroke-width="1" fill="none" fill-rule="evenodd">
        <g id="Home" transform="translate(-1241.000000, -4512.000000)">
            <rect fill="#FFFFFF" x="0" y="0" width="1440" height="4903"></rect>
            <g id="footer" transform="translate(0.000000, 4472.813853)">
                <rect id="Rectangle" fill="#F6F4FC" x="0" y="9.09494702e-13" width="1440" height="97"></rect>
                <g id="elements/icon+label" transform="translate(1241.000000, 31.186147)" fill-rule="nonzero">
                    <g id="Group" transform="translate(0.000000, 8.000000)">
                        <g id="013-italy" transform="translate(0.833333, 0.000000)">
                            <path d="M17.0271094,4.49414063 L11.7849219,1.46867188 L9.55988281,0.184570312 C9.13332031,-0.0616015625 8.60789062,-0.0615234375 8.18148437,0.184804687 L5.86203125,1.52441406 L0.715625,4.49679688 C0.289179688,4.74308594 0.0266015625,5.19816406 0.0266015625,5.690625 L0.0280078125,14.3122266 C0.028125,14.8046875 0.290898438,15.2596875 0.717421875,15.5058594 L5.86199219,18.4749219 L8.18464844,19.8154297 C8.61121094,20.0616016 9.13664062,20.0614453 9.56304687,19.8151953 L11.7848438,18.5319531 L17.0288672,15.503125 C17.4076172,15.284375 17.6566797,14.9007422 17.7076953,14.4726953 L17.7076953,5.53921875 C17.6607031,5.10519531 17.4103125,4.7153125 17.0271094,4.49414063 Z" id="Path" fill="#F5F5F5"></path>
                            <path d="M0.715625,4.49679687 C0.289179687,4.74308594 0.0266015625,5.19816406 0.0266015625,5.690625 L0.0280078125,14.3122266 C0.028125,14.8046875 0.290898438,15.2596875 0.717421875,15.5058594 L5.86199219,18.4749219 L5.86199219,1.524375 L0.715625,4.49679687 Z" id="Path" fill="#73AF00"></path>
                            <path d="M17.0271094,4.49414063 L11.7849219,1.46867188 L11.7849219,18.5319922 L17.0289453,15.5031641 C17.4076953,15.2844141 17.6567578,14.9007813 17.7077734,14.4727344 L17.7077734,5.53921875 C17.6607031,5.10519531 17.4103125,4.7153125 17.0271094,4.49414063 Z" id="Path" fill="#FF4B55"></path>
                        </g>
                    </g>
                </g>
            </g>
        </g>
    </g>
</svg>