<?xml version="1.0" encoding="UTF-8"?>
<svg width="189px" height="50px" viewBox="0 0 189 50" version="1.1" xmlns="http://www.w3.org/2000/svg" xmlns:xlink="http://www.w3.org/1999/xlink">
    <title>51707C23-43C3-482D-B2FB-12E60E822E46</title>
    <g id="Dsk-Shopping" stroke="none" stroke-width="1" fill="none" fill-rule="evenodd">
        <g id="Home" transform="translate(-120.000000, -38.000000)">
            <rect fill="#FFFFFF" x="0" y="0" width="1440" height="4903"></rect>
            <g id="nav/header-web" transform="translate(119.999717, 0.000000)">
                <rect id="Rectangle" fill="#FFFFFF" fill-rule="nonzero" x="0.000283018868" y="0" width="1200" height="126"></rect>
                <g id="logo" transform="translate(-0.000000, 38.000000)">
                    <g id="Group-26" transform="translate(0.000000, 5.660377)">
                        <path d="M17.807994,19.2236148 L26.5014088,10.5302 C28.9020461,8.12956277 28.9020461,4.20111521 26.5014088,1.80047795 C24.1007716,-0.600159316 20.1715979,-0.600159316 17.7709606,1.80047795 L4.84411712,14.7273214 C3.61039579,15.9610428 3.01568257,17.5977749 3.04981141,19.2236148 C3.01568257,20.8494548 3.61039579,22.4861869 4.84411712,23.7199082 L17.7709606,36.6467517 C20.1715979,39.0481151 24.1007716,39.0481151 26.5014088,36.6467517 C28.9020461,34.2453883 28.9020461,30.3169408 26.5014088,27.9170296 L17.807994,19.2236148 Z" id="Fill-7" fill="#552AEE"></path>
                        <path d="M1.21338925,14.7273941 L10.3679065,5.57287682 C9.26416522,4.54538083 7.791542,3.91000345 6.17368966,3.91000345 C2.77823296,3.91000345 0,6.68751027 0,10.082967 L0,16.473048 C0.294088957,15.8413014 0.693469023,15.2473143 1.21338925,14.7273941" id="Fill-1" fill="#160E2F"></path>
                        <path d="M1.21338925,23.7198356 C0.693469023,23.1999154 0.294088957,22.6059283 0,21.9741817 L0,28.3642627 C0,31.7597194 2.77823296,34.5379524 6.17368966,34.5379524 C7.791542,34.5379524 9.26416522,33.9018488 10.3679065,32.8743529 L1.21338925,23.7198356 Z" id="Fill-4" fill="#160E2F"></path>
                    </g>
                    <path d="M48.5824248,33.9622642 L48.5824248,26.4408903 L55.3253125,33.9622642 L59.3375103,33.9622642 L51.1454407,24.883918 L59.2536733,16.0570828 L55.2774057,16.0570828 L48.5824248,23.4107827 L48.5824248,16.0570828 L45.480457,16.0570828 L45.480457,33.9622642 L48.5824248,33.9622642 Z M66.1146172,34.2377285 C67.2723658,34.2377285 68.3303085,33.9862176 69.2884453,33.4831958 C69.7834826,33.2276926 70.2346054,32.914302 70.6418135,32.543024 C71.0490216,32.171746 71.4562298,31.6906815 71.8634379,31.0998305 L71.8634379,31.0998305 L69.4082124,29.5787883 C69.1367403,29.962043 68.8852294,30.2594647 68.6536797,30.4710532 C68.4221299,30.6826418 68.170619,30.856304 67.8991469,30.9920401 C67.3641872,31.2714967 66.769344,31.4112249 66.1146172,31.4112249 C65.5317506,31.4112249 64.9848142,31.2994423 64.4738079,31.0758771 C63.9628016,30.8523118 63.5356323,30.5169639 63.1922999,30.0698334 C62.9847036,29.8223148 62.8090452,29.5069281 62.6653247,29.1236733 L62.6653247,29.1236733 L72.1628557,29.1236733 C72.2347159,28.5887136 72.2706461,28.1415831 72.2706461,27.7822818 C72.2706461,26.5846108 72.0031662,25.490738 71.4682065,24.5006633 C70.9172778,23.4946197 70.1667374,22.7161335 69.216585,22.1652049 C68.2424793,21.6062918 67.140622,21.3268352 65.9110131,21.3268352 C64.6814042,21.3268352 63.5715624,21.610284 62.5814877,22.1771816 C61.607382,22.7440792 60.8448648,23.5185731 60.2939362,24.5006633 C59.7430075,25.490738 59.4675432,26.5846108 59.4675432,27.7822818 C59.4675432,28.9480149 59.7549842,30.0378955 60.3298663,31.0519236 C60.9127328,32.0579673 61.7031957,32.8364534 62.7012548,33.3873821 C63.7152829,33.9542797 64.8530704,34.2377285 66.1146172,34.2377285 Z M69.1806549,26.4887972 L62.6174179,26.4887972 C62.7132316,26.097558 62.872921,25.7542256 63.0964863,25.4588001 C63.3759428,25.0755454 63.7591976,24.7561665 64.2462504,24.5006633 C64.7253188,24.2691136 65.2802397,24.1533387 65.9110131,24.1533387 C66.5098486,24.1533387 67.0488005,24.2691136 67.5278689,24.5006633 C68.0069373,24.7322131 68.3941843,25.051592 68.6896098,25.4588001 C68.8972061,25.7462412 69.0608878,26.0895735 69.1806549,26.4887972 L69.1806549,26.4887972 Z M78.424964,39.1601562 L85.443316,21.6022995 L82.2455345,21.6022995 L79.0477529,29.6147185 L75.8859015,21.6022995 L72.6761432,21.6022995 L77.4548505,33.6029629 L75.2511359,39.1601562 L78.424964,39.1601562 Z M92.5078639,34.2377285 C93.6416591,34.2377285 94.6756484,34.0021865 95.6098317,33.5311026 C96.0889001,33.2915684 96.5280462,32.9941468 96.9272698,32.6388377 C97.3264935,32.2835286 97.7257172,31.8264176 98.1249408,31.2675044 L98.1249408,31.2675044 L95.7535523,29.6147185 C95.4900646,29.9899887 95.2445421,30.281422 95.0169846,30.4890183 C94.7894271,30.6966146 94.5439046,30.8642885 94.2804169,30.9920401 C93.7294883,31.2555277 93.1386373,31.3872715 92.5078639,31.3872715 C91.7732923,31.3872715 91.1305422,31.2315743 90.5796136,30.9201798 C90.0207005,30.6087854 89.5895389,30.1816161 89.2861289,29.6386719 C88.96675,29.0877432 88.8070605,28.4689465 88.8070605,27.7822818 C88.8070605,27.0796482 88.96675,26.4568593 89.2861289,25.9139151 C89.5815544,25.3709709 90.012716,24.9438016 90.5796136,24.6324071 C91.1385267,24.3289972 91.7812768,24.1772922 92.5078639,24.1772922 C93.1386373,24.1772922 93.7294883,24.309036 94.2804169,24.5725236 C94.5439046,24.7002752 94.7894271,24.8679491 95.0169846,25.0755454 C95.2445421,25.2831417 95.4900646,25.574575 95.7535523,25.9498452 L95.7535523,25.9498452 L98.1249408,24.2850825 C97.7257172,23.7261694 97.3264935,23.2690583 96.9272698,22.9137493 C96.5280462,22.5584402 96.0889001,22.2610186 95.6098317,22.0214844 C94.6916173,21.5583849 93.657628,21.3268352 92.5078639,21.3268352 C91.2543016,21.3268352 90.1205064,21.610284 89.1064783,22.1771816 C88.0844657,22.7440792 87.2860184,23.5185731 86.7111363,24.5006633 C86.1362542,25.4827535 85.8488132,26.5766264 85.8488132,27.7822818 C85.8488132,28.9879373 86.1362542,30.0818101 86.7111363,31.0639004 C87.2860184,32.0459906 88.0844657,32.8204845 89.1064783,33.3873821 C90.1205064,33.9542797 91.2543016,34.2377285 92.5078639,34.2377285 Z M105.54879,34.2377285 C106.706539,34.2377285 107.764481,33.9862176 108.722618,33.4831958 C109.217655,33.2276926 109.668778,32.914302 110.075986,32.543024 C110.483194,32.171746 110.890403,31.6906815 111.297611,31.0998305 L111.297611,31.0998305 L108.842385,29.5787883 C108.570913,29.962043 108.319402,30.2594647 108.087853,30.4710532 C107.856303,30.6826418 107.604792,30.856304 107.33332,30.9920401 C106.79836,31.2714967 106.203517,31.4112249 105.54879,31.4112249 C104.965923,31.4112249 104.418987,31.2994423 103.907981,31.0758771 C103.396974,30.8523118 102.969805,30.5169639 102.626473,30.0698334 C102.418876,29.8223148 102.243218,29.5069281 102.099498,29.1236733 L102.099498,29.1236733 L111.597029,29.1236733 C111.668889,28.5887136 111.704819,28.1415831 111.704819,27.7822818 C111.704819,26.5846108 111.437339,25.490738 110.902379,24.5006633 C110.351451,23.4946197 109.60091,22.7161335 108.650758,22.1652049 C107.676652,21.6062918 106.574795,21.3268352 105.345186,21.3268352 C104.115577,21.3268352 103.005735,21.610284 102.015661,22.1771816 C101.041555,22.7440792 100.279038,23.5185731 99.728109,24.5006633 C99.1771803,25.490738 98.901716,26.5846108 98.901716,27.7822818 C98.901716,28.9480149 99.1891571,30.0378955 99.7640391,31.0519236 C100.346906,32.0579673 101.137369,32.8364534 102.135428,33.3873821 C103.149456,33.9542797 104.287243,34.2377285 105.54879,34.2377285 Z M108.614828,26.4887972 L102.051591,26.4887972 C102.147404,26.097558 102.307094,25.7542256 102.530659,25.4588001 C102.810116,25.0755454 103.19337,24.7561665 103.680423,24.5006633 C104.159492,24.2691136 104.714413,24.1533387 105.345186,24.1533387 C105.944021,24.1533387 106.482973,24.2691136 106.962042,24.5006633 C107.44111,24.7322131 107.828357,25.051592 108.123783,25.4588001 C108.331379,25.7462412 108.495061,26.0895735 108.614828,26.4887972 L108.614828,26.4887972 Z M116.75728,33.9622642 L116.75728,26.6684478 C116.75728,26.1813949 116.86507,25.7542256 117.080651,25.3869399 C117.296231,25.0036851 117.599641,24.7042674 117.990881,24.4886866 C118.366151,24.2651214 118.821266,24.1533387 119.356226,24.1533387 C119.907154,24.1533387 120.370254,24.2651214 120.745524,24.4886866 C121.136763,24.7042674 121.440173,25.0036851 121.655754,25.3869399 C121.871335,25.7542256 121.979125,26.1813949 121.979125,26.6684478 L121.979125,26.6684478 L121.979125,33.9622642 L124.913419,33.9622642 L124.913419,26.3690301 C124.913419,25.4108933 124.693846,24.5525624 124.2547,23.7940374 C123.799585,23.0195435 123.176796,22.4127236 122.386333,21.9735775 C121.579901,21.542416 120.689633,21.3268352 119.715527,21.3268352 C118.629639,21.3268352 117.643556,21.610284 116.75728,22.1771816 L116.75728,22.1771816 L116.75728,21.5783461 L113.822986,21.5783461 L113.822986,33.9622642 L116.75728,33.9622642 Z M131.810293,34.2377285 C132.528896,34.2377285 133.183622,34.1379226 133.774473,33.9383107 C134.365324,33.7386989 134.888307,33.4592423 135.343422,33.099941 C135.782568,32.7566087 136.133885,32.3254471 136.397373,31.8064564 C136.652876,31.2954501 136.780628,30.7365369 136.780628,30.129717 C136.780628,29.2035181 136.51714,28.4250319 135.990165,27.7942585 C135.455205,27.1555007 134.688696,26.7443003 133.690636,26.5606574 C133.203584,26.4728282 132.672616,26.3929835 132.097734,26.3211232 C131.618666,26.2732164 131.21545,26.2093406 130.888086,26.1294959 C130.600645,26.0656201 130.373088,25.9618219 130.205414,25.8181014 C130.093631,25.7302722 130.03774,25.5665905 130.03774,25.3270563 C130.03774,24.9917084 130.185453,24.7082596 130.480878,24.4767099 C130.792273,24.2291912 131.247388,24.1054319 131.846223,24.1054319 C132.157618,24.1054319 132.421105,24.1373698 132.636686,24.2012456 C132.87622,24.2731058 133.067847,24.360935 133.211568,24.4647332 C133.347304,24.5525624 133.463079,24.6763217 133.558893,24.8360112 C133.598815,24.9158559 133.626761,25.0156619 133.64273,25.135429 C133.658698,25.255196 133.666683,25.4508156 133.666683,25.7222877 L133.666683,25.7222877 L136.62493,25.7222877 C136.62493,25.2512038 136.594989,24.8619607 136.535105,24.5545585 C136.475221,24.2471563 136.381404,23.9657036 136.253652,23.7102005 C135.758615,22.7201258 134.92823,22.0214844 133.762497,21.6142762 C133.187615,21.4226489 132.576802,21.3268352 131.93006,21.3268352 C131.259364,21.3268352 130.632583,21.4226489 130.049717,21.6142762 C128.86003,22.0055154 128.009684,22.7001646 127.498677,23.6982238 C127.243174,24.1852766 127.115423,24.7322131 127.115423,25.339033 C127.115423,26.2253096 127.37891,26.9798423 127.905885,27.6026312 C128.472783,28.2892959 129.243285,28.7004963 130.21739,28.8362323 L130.21739,28.8362323 L130.756342,28.9200693 C130.932001,28.9440227 131.167543,28.9719684 131.462968,29.0039062 C132.021881,29.067782 132.445059,29.1316578 132.7325,29.1955336 C133.075832,29.2833628 133.315366,29.3632075 133.451102,29.4350678 C133.610792,29.5308815 133.720578,29.6306874 133.780462,29.7344856 C133.840345,29.8382837 133.870287,29.9820042 133.870287,30.1656471 C133.870287,30.34929 133.830365,30.5129717 133.75052,30.6566922 C133.662691,30.8243662 133.546916,30.95611 133.403195,31.0519236 C133.195599,31.1956442 132.988003,31.2914578 132.780406,31.3393647 C132.516919,31.4112249 132.229478,31.4471551 131.918083,31.4471551 C131.598704,31.4471551 131.307271,31.4112249 131.043783,31.3393647 C130.820218,31.2834734 130.612622,31.1876597 130.420995,31.0519236 C130.26929,30.9481255 130.149522,30.8123894 130.061693,30.6447155 C130.021771,30.5568863 129.991829,30.4470998 129.971868,30.315356 C129.951907,30.1836122 129.941926,29.9740198 129.941926,29.6865787 L129.941926,29.6865787 L126.971702,29.6865787 C126.971702,30.1656471 127.001644,30.5608785 127.061527,30.872273 C127.121411,31.1836675 127.219221,31.479093 127.354957,31.7585495 C127.849994,32.7645932 128.700341,33.487188 129.905996,33.926334 C130.480878,34.1339303 131.115644,34.2377285 131.810293,34.2377285 Z M144.671568,34.2377285 C145.829317,34.2377285 146.88726,33.9862176 147.845397,33.4831958 C148.340434,33.2276926 148.791557,32.914302 149.198765,32.543024 C149.605973,32.171746 150.013181,31.6906815 150.420389,31.0998305 L150.420389,31.0998305 L147.965164,29.5787883 C147.693692,29.962043 147.442181,30.2594647 147.210631,30.4710532 C146.979081,30.6826418 146.72757,30.856304 146.456098,30.9920401 C145.921138,31.2714967 145.326295,31.4112249 144.671568,31.4112249 C144.088702,31.4112249 143.541765,31.2994423 143.030759,31.0758771 C142.519753,30.8523118 142.092584,30.5169639 141.749251,30.0698334 C141.541655,29.8223148 141.365996,29.5069281 141.222276,29.1236733 L141.222276,29.1236733 L150.719807,29.1236733 C150.791667,28.5887136 150.827597,28.1415831 150.827597,27.7822818 C150.827597,26.5846108 150.560117,25.490738 150.025158,24.5006633 C149.474229,23.4946197 148.723689,22.7161335 147.773536,22.1652049 C146.799431,21.6062918 145.697573,21.3268352 144.467964,21.3268352 C143.238355,21.3268352 142.128514,21.610284 141.138439,22.1771816 C140.164333,22.7440792 139.401816,23.5185731 138.850887,24.5006633 C138.299959,25.490738 138.024494,26.5846108 138.024494,27.7822818 C138.024494,28.9480149 138.311935,30.0378955 138.886818,31.0519236 C139.469684,32.0579673 140.260147,32.8364534 141.258206,33.3873821 C142.272234,33.9542797 143.410022,34.2377285 144.671568,34.2377285 Z M147.737606,26.4887972 L141.174369,26.4887972 C141.270183,26.097558 141.429872,25.7542256 141.653438,25.4588001 C141.932894,25.0755454 142.316149,24.7561665 142.803202,24.5006633 C143.28227,24.2691136 143.837191,24.1533387 144.467964,24.1533387 C145.0668,24.1533387 145.605752,24.2691136 146.08482,24.5006633 C146.563889,24.7322131 146.951136,25.051592 147.246561,25.4588001 C147.454157,25.7462412 147.617839,26.0895735 147.737606,26.4887972 L147.737606,26.4887972 Z" id="Keycense" fill="#160E2F" fill-rule="nonzero"></path>
                </g>
            </g>
        </g>
    </g>
</svg>