<?xml version="1.0" encoding="UTF-8"?>
<svg width="20px" height="20px" viewBox="0 0 20 20" version="1.1" xmlns="http://www.w3.org/2000/svg" xmlns:xlink="http://www.w3.org/1999/xlink">
    <title>6BE97F31-A99B-4399-B322-89F7ABFCABAD</title>
    <g id="Dsk-Shopping" stroke="none" stroke-width="1" fill="none" fill-rule="evenodd">
        <g id="Home" transform="translate(-830.000000, -771.000000)">
            <rect fill="#FFFFFF" x="0" y="0" width="1440" height="4903"></rect>
            <g id="nav/title-break" transform="translate(120.500000, 763.000000)"></g>
            <g id="Group-2" transform="translate(590.000000, 771.000000)" fill="#BCB7CC">
                <g id="icons/nintendo" transform="translate(240.000000, 0.000000)">
                    <path d="M9.46289063,0.833333333 L9.46289063,19.1666667 L4.95117188,19.1666667 C2.6805957,19.1666667 0.833333333,17.3194043 0.833333333,15.0488281 L0.833333333,15.0488281 L0.833333333,4.95117188 C0.833333333,2.6805957 2.6805957,0.833333333 4.95117188,0.833333333 L4.95117188,0.833333333 L9.46289063,0.833333333 Z M8.38867188,1.90755208 L4.95117188,1.90755208 C3.27291992,1.90755208 1.90755208,3.27291992 1.90755208,4.95117188 L1.90755208,4.95117188 L1.90755208,15.0488281 C1.90755208,16.7270801 3.27291992,18.0924479 4.95117188,18.0924479 L4.95117188,18.0924479 L8.38867188,18.0924479 L8.38867188,1.90755208 Z M5.14811198,4.05598958 C6.34260742,4.05598958 7.31445313,5.02783529 7.31445313,6.22233073 C7.31445313,7.41682617 6.34260742,8.38867188 5.14811198,8.38867188 C3.95361654,8.38867188 2.98177083,7.41682617 2.98177083,6.22233073 C2.98177083,5.02783529 3.95361654,4.05598958 5.14811198,4.05598958 Z M15.0488281,0.833333333 C17.3194043,0.833333333 19.1666667,2.6805957 19.1666667,4.95117188 L19.1666667,4.95117188 L19.1666667,15.0488281 C19.1666667,17.3194043 17.3194043,19.1666667 15.0488281,19.1666667 L15.0488281,19.1666667 L10.5371094,19.1666667 L10.5371094,0.833333333 Z M14.851888,8.38867188 C13.6573926,8.38867188 12.6855469,9.36051758 12.6855469,10.555013 C12.6855469,11.7495085 13.6573926,12.7213542 14.851888,12.7213542 C16.0463835,12.7213542 17.0182292,11.7495085 17.0182292,10.555013 C17.0182292,9.36051758 16.0463835,8.38867188 14.851888,8.38867188 Z" id="Combined-Shape"></path>
                </g>
            </g>
        </g>
    </g>
</svg>