<?xml version="1.0" encoding="UTF-8"?>
<svg width="20px" height="20px" viewBox="0 0 20 20" version="1.1" xmlns="http://www.w3.org/2000/svg" xmlns:xlink="http://www.w3.org/1999/xlink">
    <title>9AD59DA9-1125-4337-9D14-97CA538ECDB0</title>
    <g id="Dsk-Shopping" stroke="none" stroke-width="1" fill="none" fill-rule="evenodd">
        <g id="Home" transform="translate(-650.000000, -771.000000)">
            <rect fill="#FFFFFF" x="0" y="0" width="1440" height="4903"></rect>
            <g id="nav/title-break" transform="translate(120.500000, 763.000000)"></g>
            <g id="Group-2" transform="translate(590.000000, 771.000000)" fill="#BCB7CC">
                <g id="icons/nintendo" transform="translate(60.000000, 0.000000)">
                    <path d="M16.8217054,3.33333333 C18.1168062,3.33333333 19.1666667,4.38321085 19.1666667,5.67829457 L19.1666667,13.372093 C19.1666667,14.6671938 18.1168062,15.7170543 16.8217054,15.7170543 L11.8874806,15.7170543 L12.5270155,16.996124 L14.2635659,16.996124 C14.6167597,16.996124 14.9031008,17.2824651 14.9031008,17.6356589 C14.9031008,17.9888527 14.6167597,18.2751938 14.2635659,18.2751938 L5.73643411,18.2751938 C5.38323178,18.2751938 5.09689922,17.9888527 5.09689922,17.6356589 C5.09689922,17.2824651 5.38323178,16.996124 5.73643411,16.996124 L7.47295891,16.996124 L8.1124938,15.7170543 L3.17829457,15.7170543 C1.88321085,15.7170543 0.833333333,14.6671938 0.833333333,13.372093 L0.833333333,5.67829457 C0.833333333,4.38321085 1.88321085,3.33333333 3.17829457,3.33333333 L16.8217054,3.33333333 Z M16.8217054,4.6124031 L3.17829457,4.6124031 C2.5896155,4.6124031 2.1124031,5.0896155 2.1124031,5.67829457 L2.1124031,5.67829457 L2.1124031,13.372093 C2.1124031,13.9608062 2.5896155,14.4379845 3.17829457,14.4379845 L3.17829457,14.4379845 L16.8217054,14.4379845 C17.4104186,14.4379845 17.8875969,13.9608062 17.8875969,13.372093 L17.8875969,13.372093 L17.8875969,5.67829457 C17.8875969,5.0896155 17.4104186,4.6124031 16.8217054,4.6124031 L16.8217054,4.6124031 Z" id="Shape"></path>
                </g>
            </g>
        </g>
    </g>
</svg>