<?xml version="1.0" encoding="UTF-8"?>
<svg width="20px" height="20px" viewBox="0 0 20 20" version="1.1" xmlns="http://www.w3.org/2000/svg" xmlns:xlink="http://www.w3.org/1999/xlink">
    <title>6CD3464A-E1BF-4FBA-8879-6CC2370B6E7B</title>
    <g id="Dsk-Shopping" stroke="none" stroke-width="1" fill="none" fill-rule="evenodd">
        <g id="Home" transform="translate(-710.000000, -771.000000)">
            <rect fill="#FFFFFF" x="0" y="0" width="1440" height="4903"></rect>
            <g id="nav/title-break" transform="translate(120.500000, 763.000000)"></g>
            <g id="Group-2" transform="translate(590.000000, 771.000000)" fill="#BCB7CC">
                <g id="icons/nintendo" transform="translate(120.000000, 0.000000)">
                    <path d="M6.18370129,0.833333333 L13.0653973,2.73745768 C14.6679526,3.18802083 15.7856772,4.66453451 15.7856772,6.32860677 C15.7856772,6.36076172 15.7852833,6.39277344 15.7844598,6.42471354 C15.7422071,8.08559896 14.6088348,9.48007813 13.0759962,9.91638997 C13.0465268,9.92480469 13.0168784,9.93286133 12.9871225,9.94052409 C12.9276108,9.95588542 12.8674904,9.96981445 12.8068686,9.98223958 C12.7159181,10.000931 12.6237859,10.0162923 12.5305437,10.0281445 C12.4684181,10.0360938 12.4057911,10.0424674 12.3427345,10.0472656 C12.2481674,10.0544987 12.1525978,10.0581868 12.0562045,10.0581868 L12.0562045,10.0581868 L11.523392,10.0581868 L11.523392,5.91349284 C11.523392,5.61972982 11.2843784,5.38071615 10.9906154,5.38071615 C10.6968523,5.38071615 10.4578387,5.61972982 10.4578387,5.91349284 L10.4578387,5.91349284 L10.4578387,19.1666667 L6.18370129,17.9834863 L6.18370129,0.833333333 Z M15.5992644,10.4827897 C17.4843393,10.4827897 19.0180014,12.016416 19.0180014,13.9014909 C19.0180014,14.6480371 18.7816017,15.3574154 18.334297,15.9529264 C17.9020314,16.5283496 17.2867905,16.9608659 16.6017612,17.1706966 L16.6017612,17.1706966 L16.5878321,17.1747428 L11.5234279,18.5767057 L11.5234279,15.5826074 L16.4687371,14.213623 L16.1844272,13.1866699 L11.5234279,14.4769857 L11.5234279,11.4829232 L14.6040724,10.6300651 C14.9257651,10.532347 15.2605633,10.4827897 15.5992644,10.4827897 Z M5.1181479,10.2619303 L3.42242199,10.7313281 C3.09636079,10.8129329 2.78379895,10.9425553 2.49325858,11.1167578 C0.876523555,12.0861328 0.349834102,14.1901335 1.31924491,15.8068685 C1.70317069,16.4471745 2.27075207,16.9340104 2.96057954,17.2147038 C3.37182629,17.3820312 3.81479829,17.4668945 4.25712577,17.4668945 C4.5318035,17.4668945 4.8063022,17.4341667 5.07267264,17.368138 L5.1181479,17.3555697 L5.1181479,14.361722 L3.66609061,14.7636589 L3.38178072,13.7367057 L5.1181479,13.2560645 L5.1181479,10.2619303 L5.1181479,10.2619303 Z" id="Combined-Shape"></path>
                </g>
            </g>
        </g>
    </g>
</svg>