<?xml version="1.0" encoding="UTF-8"?>
<svg width="21px" height="20px" viewBox="0 0 21 20" version="1.1" xmlns="http://www.w3.org/2000/svg" xmlns:xlink="http://www.w3.org/1999/xlink">
    <title>4AF478B1-686C-4DF7-82E0-FD8EA057E83E</title>
    <g id="Dsk-Shopping" stroke="none" stroke-width="1" fill="none" fill-rule="evenodd">
        <g id="Home" transform="translate(-517.000000, -57.000000)">
            <rect fill="#FFFFFF" x="0" y="0" width="1440" height="4903"></rect>
            <g id="nav/header-web" transform="translate(119.999717, 0.000000)">
                <rect id="Rectangle" fill="#FFFFFF" fill-rule="nonzero" x="0.000283018868" y="0" width="1200" height="126"></rect>
                <g id="elements/search-bar" transform="translate(232.000283, 38.000000)">
                    <rect id="Rectangle" fill="#F6F4FC" x="0" y="0" width="500" height="54" rx="24"></rect>
                    <g id="Group" transform="translate(167.910448, 18.000000)" fill="#A099B6">
                        <g id="search" transform="translate(-2.537313, 1.000000)">
                            <path d="M8.23589798,16.471796 C3.69460041,16.471796 0,12.7771955 0,8.23589798 C0,3.69460041 3.69460041,0 8.23589798,0 C12.7771955,0 16.471796,3.69460041 16.471796,8.23589798 C16.471796,12.7771955 12.7771955,16.471796 8.23589798,16.471796 Z M8.23589798,1.56130767 C4.55550546,1.56130767 1.56130767,4.55550546 1.56130767,8.23589798 C1.56130767,11.9162905 4.55550546,14.9104883 8.23589798,14.9104883 C11.9162905,14.9104883 14.9104883,11.9162905 14.9104883,8.23589798 C14.9104883,4.55550546 11.9162905,1.56130767 8.23589798,1.56130767 Z M17.2561237,16.1673458 L15.4293645,14.3405866 C15.1244801,14.0357022 14.6301701,14.0357022 14.3253248,14.3405866 C14.0204795,14.6454709 14.0204795,15.1397809 14.3253248,15.4446263 L16.1520841,17.2713855 C16.3045067,17.4238082 16.5043151,17.5 16.7041234,17.5 C16.9039318,17.5 17.103662,17.4238082 17.2561237,17.2713855 C17.5609691,16.9665012 17.5609691,16.4721912 17.2561237,16.1673458 Z" id="Shape"></path>
                        </g>
                    </g>
                </g>
            </g>
        </g>
    </g>
</svg>