<?xml version="1.0" encoding="UTF-8"?>
<svg width="36px" height="36px" viewBox="0 0 36 36" version="1.1" xmlns="http://www.w3.org/2000/svg" xmlns:xlink="http://www.w3.org/1999/xlink">
    <title>145AC652-41FB-4442-A1F8-EA0081629301</title>
    <defs>
        <rect id="path-1" x="0" y="0" width="1200" height="120" rx="24"></rect>
        <filter x="-2.5%" y="-25.0%" width="105.0%" height="150.0%" filterUnits="objectBoundingBox" id="filter-2">
            <feOffset dx="0" dy="0" in="SourceAlpha" result="shadowOffsetOuter1"></feOffset>
            <feGaussianBlur stdDeviation="10" in="shadowOffsetOuter1" result="shadowBlurOuter1"></feGaussianBlur>
            <feColorMatrix values="0 0 0 0 0.0870435499   0 0 0 0 0.055175793   0 0 0 0 0.182646821  0 0 0 0.08 0" type="matrix" in="shadowBlurOuter1"></feColorMatrix>
        </filter>
    </defs>
    <g id="Dsk-Shopping" stroke="none" stroke-width="1" fill="none" fill-rule="evenodd">
        <g id="Home" transform="translate(-1073.000000, -1935.000000)">
            <rect fill="#FFFFFF" x="0" y="0" width="1440" height="4903"></rect>
            <g id="Group" transform="translate(120.000000, 1894.000000)">
                <g id="Rectangle">
                    <use fill="black" fill-opacity="1" filter="url(#filter-2)" xlink:href="#path-1"></use>
                    <use fill="#FFFFFF" fill-rule="evenodd" xlink:href="#path-1"></use>
                </g>
                <g id="elements/usp-dark" transform="translate(953.000000, 20.000000)" fill="#EE004C">
                    <g id="headphone" transform="translate(0.000000, 21.000000)">
                        <path d="M32.1428571,15.4285714 L32.1428571,14.1428571 C32.1428571,6.33197282 25.8108843,0 18,0 C10.1891157,0 3.85714286,6.33197282 3.85714286,14.1428571 L3.85714286,15.4285714 C1.727871,15.4309098 0.00233834289,17.1564424 0,19.2857143 L0,25.7142857 C0.00233834289,27.8435576 1.727871,29.5690902 3.85714286,29.5714286 L9,29.5714286 C9.71008039,29.5714286 10.2857143,28.9957947 10.2857143,28.2857143 L10.2857143,16.7142857 C10.2857143,16.0042053 9.71008039,15.4285714 9,15.4285714 L6.42857143,15.4285714 L6.42857143,14.1428571 C6.42857143,7.75213361 11.6092765,2.57142857 18,2.57142857 C24.3907235,2.57142857 29.5714286,7.75213361 29.5714286,14.1428571 L29.5714286,15.4285714 L27,15.4285714 C26.2899196,15.4285714 25.7142857,16.0042053 25.7142857,16.7142857 L25.7142857,28.2857143 C25.7142857,28.9957947 26.2899196,29.5714286 27,29.5714286 L29.5714286,29.5714286 C29.571003,30.2813326 28.9956183,30.8567173 28.2857143,30.8571429 L22.9059,30.8571429 C22.3646529,29.3204719 20.9149107,28.2907158 19.2857143,28.2857143 L16.7142857,28.2857143 C14.5840445,28.2857143 12.8571429,30.012616 12.8571429,32.1428571 C12.8571429,34.2730983 14.5840445,36 16.7142857,36 L19.2857143,36 C20.9149107,35.9949985 22.3646529,34.9652424 22.9059,33.4285714 L28.2857143,33.4285714 C30.4149861,33.4262331 32.1405188,31.7007004 32.1428571,29.5714286 C34.272129,29.5690902 35.9976617,27.8435576 36,25.7142857 L36,19.2857143 C35.9976617,17.1564424 34.272129,15.4309098 32.1428571,15.4285714 Z M7.71428571,27 L3.85714286,27 C3.14723881,26.9995744 2.57185413,26.4241898 2.57142857,25.7142857 L2.57142857,19.2857143 C2.57185413,18.5758102 3.14723881,18.0004256 3.85714286,18 L7.71428571,18 L7.71428571,27 Z M19.2857143,33.4285714 L16.7142857,33.4285714 C16.0042053,33.4285714 15.4285714,32.8529375 15.4285714,32.1428571 C15.4285714,31.4327768 16.0042053,30.8571429 16.7142857,30.8571429 L19.2857143,30.8571429 C19.9957947,30.8571429 20.5714286,31.4327768 20.5714286,32.1428571 C20.5714286,32.8529375 19.9957947,33.4285714 19.2857143,33.4285714 Z M33.4285714,25.7142857 C33.4281459,26.4241898 32.8527612,26.9995744 32.1428571,27 L28.2857143,27 L28.2857143,18 L32.1428571,18 C32.8527612,18.0004256 33.4281459,18.5758102 33.4285714,19.2857143 L33.4285714,25.7142857 Z" id="Shape"></path>
                    </g>
                </g>
            </g>
        </g>
    </g>
</svg>