<?xml version="1.0" encoding="UTF-8"?>
<svg width="24px" height="24px" viewBox="0 0 24 24" version="1.1" xmlns="http://www.w3.org/2000/svg" xmlns:xlink="http://www.w3.org/1999/xlink">
    <title>2081D4FA-2049-4F8C-9866-620831A118F7</title>
    <g id="Dsk-Shopping" stroke="none" stroke-width="1" fill="none" fill-rule="evenodd">
        <g id="Home" transform="translate(-946.000000, -53.000000)">
            <rect fill="#FFFFFF" x="0" y="0" width="1440" height="4903"></rect>
            <g id="nav/header-web" transform="translate(119.999717, 0.000000)">
                <rect id="Rectangle" fill="#FFFFFF" fill-rule="nonzero" x="0.000283018868" y="0" width="1200" height="126"></rect>
                <g id="elements/icon-box" transform="translate(811.000283, 38.000000)">
                    <rect id="Rectangle" fill="#FFFFFF" fill-rule="nonzero" x="0" y="0" width="54" height="54" rx="24"></rect>
                    <g id="headphone" transform="translate(15.000000, 15.000000)" fill="#322A4B">
                        <path d="M21.4285714,10.2857143 L21.4285714,9.42857143 C21.4285714,4.22131522 17.2072562,0 12,0 C6.79274379,0 2.57142857,4.22131522 2.57142857,9.42857143 L2.57142857,10.2857143 C1.151914,10.2872732 0.00155889526,11.4376283 0,12.8571429 L0,17.1428571 C0.00155889526,18.5623717 1.151914,19.7127268 2.57142857,19.7142857 L6,19.7142857 C6.47338693,19.7142857 6.85714286,19.3305298 6.85714286,18.8571429 L6.85714286,11.1428571 C6.85714286,10.6694702 6.47338693,10.2857143 6,10.2857143 L4.28571429,10.2857143 L4.28571429,9.42857143 C4.28571429,5.16808907 7.73951764,1.71428571 12,1.71428571 C16.2604824,1.71428571 19.7142857,5.16808907 19.7142857,9.42857143 L19.7142857,10.2857143 L18,10.2857143 C17.5266131,10.2857143 17.1428571,10.6694702 17.1428571,11.1428571 L17.1428571,18.8571429 C17.1428571,19.3305298 17.5266131,19.7142857 18,19.7142857 L19.7142857,19.7142857 C19.714002,20.1875551 19.3304122,20.5711449 18.8571429,20.5714286 L15.2706,20.5714286 C14.9097686,19.5469813 13.9432738,18.8604772 12.8571429,18.8571429 L11.1428571,18.8571429 C9.72269636,18.8571429 8.57142857,20.0084106 8.57142857,21.4285714 C8.57142857,22.8487322 9.72269636,24 11.1428571,24 L12.8571429,24 C13.9432738,23.9966657 14.9097686,23.3101616 15.2706,22.2857143 L18.8571429,22.2857143 C20.2766574,22.2841554 21.4270125,21.1338003 21.4285714,19.7142857 C22.848086,19.7127268 23.9984411,18.5623717 24,17.1428571 L24,12.8571429 C23.9984411,11.4376283 22.848086,10.2872732 21.4285714,10.2857143 Z M5.14285714,18 L2.57142857,18 C2.09815921,17.9997163 1.71456942,17.6161265 1.71428571,17.1428571 L1.71428571,12.8571429 C1.71456942,12.3838735 2.09815921,12.0002837 2.57142857,12 L5.14285714,12 L5.14285714,18 Z M12.8571429,22.2857143 L11.1428571,22.2857143 C10.6694702,22.2857143 10.2857143,21.9019584 10.2857143,21.4285714 C10.2857143,20.9551845 10.6694702,20.5714286 11.1428571,20.5714286 L12.8571429,20.5714286 C13.3305298,20.5714286 13.7142857,20.9551845 13.7142857,21.4285714 C13.7142857,21.9019584 13.3305298,22.2857143 12.8571429,22.2857143 Z M22.2857143,17.1428571 C22.2854306,17.6161265 21.9018408,17.9997163 21.4285714,18 L18.8571429,18 L18.8571429,12 L21.4285714,12 C21.9018408,12.0002837 22.2854306,12.3838735 22.2857143,12.8571429 L22.2857143,17.1428571 Z" id="Shape"></path>
                    </g>
                </g>
            </g>
        </g>
    </g>
</svg>