<?xml version="1.0" encoding="UTF-8"?>
<svg width="24px" height="24px" viewBox="0 0 24 24" version="1.1" xmlns="http://www.w3.org/2000/svg" xmlns:xlink="http://www.w3.org/1999/xlink">
    <title>789AC244-4D88-454F-A305-95C2B2D8688B</title>
    <g id="Dsk-Shopping" stroke="none" stroke-width="1" fill="none" fill-rule="evenodd">
        <g id="Home" transform="translate(-1282.000000, -4719.000000)">
            <rect fill="#FFFFFF" x="0" y="0" width="1440" height="4903"></rect>
            <g id="footer" transform="translate(0.000000, 4472.813853)">
                <g id="elements/icon-box" transform="translate(1267.000000, 231.186147)">
                    <rect id="Rectangle" stroke="#D7D4DF" x="0.5" y="0.5" width="53" height="53" rx="24"></rect>
                    <g id="icons/search" transform="translate(15.000000, 15.000000)" fill="#160E2F">
                        <g id="twitch" transform="translate(2.000000, 1.000000)">
                            <path d="M19,0 C19.5522847,0 20,0.44771525 20,1 L20,1 L20,13 C20,13.2652165 19.8946432,13.5195704 19.7071068,13.7071068 L19.7071068,13.7071068 L15.7071068,17.7071068 C15.5195704,17.8946432 15.2652165,18 15,18 L15,18 L10.414,18 L6.70710678,21.7071068 C6.1045317,22.3096819 5.09281919,21.9276677 5.00598327,21.1136309 L5.00598327,21.1136309 L5,21 L5,18 L1,18 C0.487164161,18 0.0644928393,17.6139598 0.00672773133,17.1166211 L0.00672773133,17.1166211 L0,17 L0,1 C0,0.44771525 0.44771525,0 1,0 L1,0 Z M18,2 L2,2 L2,16 L6,16 C6.51283584,16 6.93550716,16.3860402 6.99327227,16.8833789 L6.99327227,16.8833789 L7,17 L7,18.584 L9.29289322,16.2928932 C9.44917353,16.1366129 9.65185492,16.0374017 9.86855602,16.0086724 L9.86855602,16.0086724 L10,16 L14.584,16 L18,12.584 L18,2 Z M9,5 C9.51283584,5 9.93550716,5.38604019 9.99327227,5.88337887 L10,6 L10,10 C10,10.5522847 9.55228475,11 9,11 C8.48716416,11 8.06449284,10.6139598 8.00672773,10.1166211 L8,10 L8,6 C8,5.44771525 8.44771525,5 9,5 Z M14,5 C14.5128358,5 14.9355072,5.38604019 14.9932723,5.88337887 L15,6 L15,10 C15,10.5522847 14.5522847,11 14,11 C13.4871642,11 13.0644928,10.6139598 13.0067277,10.1166211 L13,10 L13,6 C13,5.44771525 13.4477153,5 14,5 Z" id="Combined-Shape"></path>
                        </g>
                    </g>
                </g>
            </g>
        </g>
    </g>
</svg>