<?xml version="1.0" encoding="UTF-8"?>
<svg width="20px" height="20px" viewBox="0 0 20 20" version="1.1" xmlns="http://www.w3.org/2000/svg" xmlns:xlink="http://www.w3.org/1999/xlink">
    <title>C9E7080A-6706-43D2-9673-9B43D65D58BF</title>
    <g id="Dsk-Shopping" stroke="none" stroke-width="1" fill="none" fill-rule="evenodd">
        <g id="Home" transform="translate(-770.000000, -771.000000)">
            <rect fill="#FFFFFF" x="0" y="0" width="1440" height="4903"></rect>
            <g id="nav/title-break" transform="translate(120.500000, 763.000000)"></g>
            <g id="Group-2" transform="translate(590.000000, 771.000000)" fill="#BCB7CC">
                <g id="icons/nintendo" transform="translate(180.000000, 0.000000)">
                    <path d="M4.91698732,2.38884139 C4.9077241,2.39596694 4.90059855,2.40380504 4.89204788,2.4109306 C4.94406441,2.35606384 5.01888271,2.29692176 5.06804902,2.26485678 C6.50313524,1.33212199 8.16125125,0.833333333 10.0010688,0.833333333 C11.7218897,0.833333333 13.3336896,1.30860767 14.7096337,2.13517173 C14.8093915,2.19431381 15.0815876,2.38100328 15.221961,2.55059142 L15.221961,2.55130398 C13.8944706,1.08771555 9.99251817,4.22794642 9.99251817,4.22794642 C8.64293858,3.18761579 7.40166738,2.47862334 6.47748325,2.22637879 C5.70507339,2.01474989 5.17065698,2.19146359 4.91698732,2.38884139 Z M16.7254525,3.77262363 C16.6848368,3.72773265 16.6406584,3.68569189 16.6000428,3.6393758 C16.2644292,3.27098475 15.8518598,3.18191535 15.4799059,3.20614223 C15.1414422,3.31231295 13.5773835,3.87594414 11.6499216,5.69581018 C11.6499216,5.69581018 13.8196523,7.80568619 15.1485678,9.96259085 C16.4760581,12.1194955 17.2698447,13.8146644 16.7817443,16.1675217 C18.2631466,14.539333 19.1666667,12.3760154 19.1666667,10.0003563 C19.1666667,7.59619496 18.2410574,5.40793787 16.7254525,3.77262363 Z M13.4134958,10.8839248 C12.8249252,10.2233861 11.9491948,9.27711273 10.7927177,8.1270486 C10.5397606,7.8755166 10.2725524,7.61329628 9.99180561,7.34181274 C9.99180561,7.34181274 9.56926037,7.76435799 9.01916774,8.32015106 L9.01916774,8.31943851 C8.31516318,9.03056862 7.40237993,9.95831552 6.89575317,10.4998575 C5.99365826,11.4625196 3.40922046,14.4858914 3.2638592,16.1810603 C3.2638592,16.1810603 2.68882713,14.8364686 3.95076243,11.7354282 C4.77518883,9.70820864 7.26628189,6.66417272 8.30661251,5.67229585 C8.30661251,5.67229585 7.35606384,4.62626479 6.1632464,3.90373379 L6.15612085,3.90159612 C6.15612085,3.90159612 6.1425823,3.8909078 6.12120564,3.87736925 C5.54759869,3.53534274 4.92126265,3.27169731 4.31844093,3.2367821 C3.70279322,3.28024797 3.31302551,3.73058287 3.31302551,3.73058287 C1.77461878,5.37088499 0.833333333,7.57553085 0.833333333,10.0010688 C0.833333333,15.0637737 4.93765142,19.1688043 10.0010688,19.1688043 C12.6881146,19.1688043 15.1058145,18.0101895 16.7831694,16.1682343 C16.7824569,16.1653841 16.590067,14.9568904 15.3566339,13.2232436 C15.0666239,12.8170871 14.0070543,11.5494513 13.4134958,10.8839248 Z" id="Shape"></path>
                </g>
            </g>
        </g>
    </g>
</svg>