<?xml version="1.0" encoding="UTF-8"?>
<svg width="24px" height="24px" viewBox="0 0 24 24" version="1.1" xmlns="http://www.w3.org/2000/svg" xmlns:xlink="http://www.w3.org/1999/xlink">
    <title>icons/account</title>
    <g id="icons/account" stroke="none" stroke-width="1" fill="none" fill-rule="evenodd">
        <g id="user" transform="translate(3.500000, 2.500000)" fill="#000000" fill-rule="nonzero">
            <path d="M9,0 C12.3137085,0 15,2.6862915 15,6 C15,7.94358259 14.0758754,9.67132431 12.6430544,10.767797 C15.7984811,12.1661005 18,15.3259541 18,19 C18,19.5522847 17.5522847,20 17,20 C16.4477153,20 16,19.5522847 16,19 C16,15.1340068 12.8659932,12 9,12 C5.13400675,12 2,15.1340068 2,19 C2,19.5522847 1.55228475,20 1,20 C0.44771525,20 0,19.5522847 0,19 C0,15.3259541 2.20151893,12.1661005 5.35735085,10.7676452 C3.9241246,9.67132431 3,7.94358259 3,6 C3,2.6862915 5.6862915,0 9,0 Z M9,2 C6.790861,2 5,3.790861 5,6 C5,8.209139 6.790861,10 9,10 C11.209139,10 13,8.209139 13,6 C13,3.790861 11.209139,2 9,2 Z" id="Combined-Shape"></path>
        </g>
    </g>
</svg>