<?xml version="1.0" encoding="UTF-8"?>
<svg width="24px" height="24px" viewBox="0 0 24 24" version="1.1" xmlns="http://www.w3.org/2000/svg" xmlns:xlink="http://www.w3.org/1999/xlink">
    <title>icons/antivirus</title>
    <g id="icons/antivirus" stroke="none" stroke-width="1" fill="none" fill-rule="evenodd">
        <path d="M21.421984,3.88621574 L12.2344772,0.0716660692 C12.0043208,-0.0238652508 11.7456175,-0.0239121258 11.5155079,0.0716660692 L2.32800122,3.88621574 C1.97807909,4.03152834 1.74998517,4.37315359 1.74998517,4.7520445 L1.74998517,9.38915727 C1.74998517,15.7741463 5.60915987,21.5176037 11.5207111,23.930496 C11.7477737,24.023168 12.0021646,24.023168 12.2292741,23.930496 C18.1407315,21.5176505 22,15.7741932 22,9.38915727 L22,4.7520445 C22,4.37315359 21.771953,4.03152834 21.421984,3.88621574 Z M20.1249986,9.38915727 C20.1249986,14.8170519 16.9374963,19.8137899 11.8749926,22.0441978 C6.94777023,19.8733681 3.62498654,14.9641457 3.62498654,9.38915727 L3.62498654,5.37791996 L11.8749926,1.9525737 L20.1249986,5.37791996 L20.1249986,9.38915727 Z M10.8387731,12.5491908 L14.8683385,8.51967226 C15.2344325,8.15357824 15.8280111,8.15353136 16.194152,8.51967226 C16.5602929,8.88581315 16.560246,9.47939171 16.1941051,9.84548573 L11.5016798,14.537911 C11.135492,14.9040988 10.5419135,14.9039582 10.1758663,14.537911 L7.55583317,11.9178779 C7.18969228,11.551737 7.18969228,10.9581584 7.55583317,10.5920644 C7.92197406,10.2259704 8.51555262,10.2259235 8.88164664,10.5920644 L10.8387731,12.5491908 Z" id="Shape" fill="#000000" fill-rule="nonzero"></path>
    </g>
</svg>