<?xml version="1.0" encoding="UTF-8"?>
<svg width="24px" height="24px" viewBox="0 0 24 24" version="1.1" xmlns="http://www.w3.org/2000/svg" xmlns:xlink="http://www.w3.org/1999/xlink">
    <title>icons/apple</title>
    <g id="icons/apple" stroke="none" stroke-width="1" fill="none" fill-rule="evenodd">
        <path d="M16.665,0 C16.718,0 16.771,0 16.827,0 C16.957,1.606 16.344,2.806 15.599,3.675 C14.868,4.538 13.867,5.375 12.248,5.248 C12.14,3.665 12.754,2.554 13.498,1.687 C14.188,0.879 15.453,0.16 16.665,0 Z M21.566,16.716 C21.566,16.732 21.566,16.746 21.566,16.761 C21.111,18.139 20.462,19.32 19.67,20.416 C18.947,21.411 18.061,22.75 16.479,22.75 C15.112,22.75 14.204,21.871 12.803,21.847 C11.321,21.823 10.506,22.582 9.151,22.773 C8.996,22.773 8.841,22.773 8.689,22.773 C7.694,22.629 6.891,21.841 6.306,21.131 C4.581,19.033 3.248,16.323 3,12.855 C3,12.515 3,12.176 3,11.836 C3.105,9.354 4.311,7.336 5.914,6.358 C6.76,5.838 7.923,5.395 9.218,5.593 C9.773,5.679 10.34,5.869 10.837,6.057 C11.308,6.238 11.897,6.559 12.455,6.542 C12.833,6.531 13.209,6.334 13.59,6.195 C14.706,5.792 15.8,5.33 17.242,5.547 C18.975,5.809 20.205,6.579 20.965,7.767 C19.499,8.7 18.34,10.106 18.538,12.507 C18.714,14.688 19.982,15.964 21.566,16.716 Z" id="Combined-Shape" fill="#000000" fill-rule="nonzero"></path>
    </g>
</svg>