<?xml version="1.0" encoding="UTF-8"?>
<svg width="24px" height="24px" viewBox="0 0 24 24" version="1.1" xmlns="http://www.w3.org/2000/svg" xmlns:xlink="http://www.w3.org/1999/xlink">
    <title>icons/arrow-left</title>
    <g id="icons/arrow-left" stroke="none" stroke-width="1" fill="none" fill-rule="evenodd">
        <g id="arrow-left" transform="translate(5.000000, 5.000000)" fill="#000000" fill-rule="nonzero">
            <path d="M7.70710678,-0.707106781 C8.06759074,-0.34662282 8.09532028,0.220608236 7.79029539,0.612899443 L7.70710678,0.707106781 L2.415,6 L14,6 C14.5522847,6 15,6.44771525 15,7 C15,7.51283584 14.6139598,7.93550716 14.1166211,7.99327227 L14,8 L2.415,8 L7.70710678,13.2928932 C8.06759074,13.6533772 8.09532028,14.2206082 7.79029539,14.6128994 L7.70710678,14.7071068 C7.34662282,15.0675907 6.77939176,15.0953203 6.38710056,14.7902954 L6.29289322,14.7071068 L-0.707106781,7.70710678 L-0.780311233,7.62544899 C-0.782627896,7.62256244 -0.784928874,7.61966276 -0.787214035,7.61675008 L-0.707106781,7.70710678 C-0.742500834,7.67171273 -0.774687047,7.63432558 -0.803665422,7.59530661 C-0.821509907,7.57113069 -0.8382813,7.54627495 -0.853932567,7.52066019 C-0.861393078,7.50861311 -0.868501172,7.49639444 -0.875328826,7.4840621 C-0.88620608,7.46429395 -0.896623357,7.4438914 -0.90634622,7.42309915 C-0.914320952,7.4060985 -0.921803576,7.38879565 -0.928774508,7.37133602 C-0.936684264,7.3515792 -0.943877514,7.33179768 -0.950453318,7.31173641 C-0.955271284,7.29685134 -0.959902265,7.28146328 -0.964154858,7.26599297 C-0.970166374,7.24443648 -0.975360205,7.22274608 -0.979834846,7.2007941 C-0.983297829,7.18337526 -0.986371919,7.16594901 -0.988982199,7.14846687 C-0.991899023,7.12942044 -0.994252037,7.10969493 -0.996022524,7.08980185 C-0.99810502,7.06599489 -0.999365107,7.04268105 -0.999813852,7.0193545 C-0.999938717,7.01290861 -1,7.00646146 -1,7 L-0.999832455,6.98163795 C-0.999400684,6.95798023 -0.998134396,6.93433491 -0.996033592,6.91074993 L-1,7 C-1,6.94937972 -0.996238813,6.89963791 -0.988980657,6.85103878 C-0.986371919,6.83405099 -0.983297829,6.81662474 -0.979759929,6.79927424 C-0.975360205,6.77725392 -0.970166374,6.75556352 -0.964279034,6.73416039 C-0.959902265,6.71853672 -0.955271284,6.70314866 -0.950261914,6.68785748 C-0.943877514,6.66820232 -0.936684264,6.6484208 -0.928896036,6.62894148 C-0.921803576,6.61120435 -0.914320952,6.5939015 -0.906326638,6.57677845 C-0.896623357,6.5561086 -0.88620608,6.53570605 -0.87512423,6.51572305 C-0.868501172,6.50360556 -0.861393078,6.49138689 -0.854004546,6.47929125 C-0.8382813,6.45372505 -0.821509907,6.42886931 -0.803686494,6.4048407 C-0.799282138,6.39879136 -0.79482546,6.39292666 -0.790295388,6.38710056 C-0.762331162,6.35153408 -0.735573092,6.32135953 -0.707106781,6.29289322 L6.29289322,-0.707106781 C6.68341751,-1.09763107 7.31658249,-1.09763107 7.70710678,-0.707106781 Z" id="Combined-Shape"></path>
        </g>
    </g>
</svg>