<?xml version="1.0" encoding="UTF-8"?>
<svg width="24px" height="24px" viewBox="0 0 24 24" version="1.1" xmlns="http://www.w3.org/2000/svg" xmlns:xlink="http://www.w3.org/1999/xlink">
    <title>icons/bin</title>
    <g id="icons/bin" stroke="none" stroke-width="1" fill="none" fill-rule="evenodd">
        <g id="trash-2" transform="translate(2.000000, 1.000000)" fill="#000000" fill-rule="nonzero">
            <path d="M12,0 C13.5976809,0 14.9036609,1.24891996 14.9949073,2.82372721 L15,3 L15,4 L19,4 C19.5522847,4 20,4.44771525 20,5 C20,5.51283584 19.6139598,5.93550716 19.1166211,5.99327227 L19,6 L18,6 L18,19 C18,20.5976809 16.75108,21.9036609 15.1762728,21.9949073 L15,22 L5,22 C3.40231912,22 2.09633912,20.75108 2.00509269,19.1762728 L2,19 L2,6 L1,6 C0.44771525,6 0,5.55228475 0,5 C0,4.48716416 0.38604019,4.06449284 0.883378875,4.00672773 L1,4 L5,4 L5,3 C5,1.40231912 6.24891996,0.0963391206 7.82372721,0.00509269341 L8,0 L12,0 Z M16,6 L4,6 L4,19 C4,19.5128358 4.38604019,19.9355072 4.88337887,19.9932723 L5,20 L15,20 C15.5128358,20 15.9355072,19.6139598 15.9932723,19.1166211 L16,19 L16,6 Z M8.49856562,10.0938665 L8.58578644,10.1715729 L10,11.586 L11.4142136,10.1715729 C11.8047379,9.78104858 12.4379028,9.78104858 12.8284271,10.1715729 C13.1910568,10.5342026 13.2169589,11.106048 12.9061335,11.4985656 L12.8284271,11.5857864 L11.414,13 L12.8284271,14.4142136 C13.2189514,14.8047379 13.2189514,15.4379028 12.8284271,15.8284271 C12.4657974,16.1910568 11.893952,16.2169589 11.5014344,15.9061335 L11.4142136,15.8284271 L10,14.414 L8.58578644,15.8284271 C8.19526215,16.2189514 7.56209717,16.2189514 7.17157288,15.8284271 C6.80894318,15.4657974 6.78304105,14.893952 7.09386651,14.5014344 L7.17157288,14.4142136 L8.586,13 L7.17157288,11.5857864 C6.78104858,11.1952621 6.78104858,10.5620972 7.17157288,10.1715729 C7.53420257,9.80894318 8.10604797,9.78304105 8.49856562,10.0938665 Z M12,2 L8,2 C7.48716416,2 7.06449284,2.38604019 7.00672773,2.88337887 L7,3 L7,4 L13,4 L13,3 C13,2.48716416 12.6139598,2.06449284 12.1166211,2.00672773 L12,2 Z" id="Combined-Shape"></path>
        </g>
    </g>
</svg>