<?xml version="1.0" encoding="UTF-8"?>
<svg width="24px" height="24px" viewBox="0 0 24 24" version="1.1" xmlns="http://www.w3.org/2000/svg" xmlns:xlink="http://www.w3.org/1999/xlink">
    <title>icons/cart add</title>
    <g id="icons/cart-add" stroke="none" stroke-width="1" fill="none" fill-rule="evenodd">
        <path d="M1.52548342,0.149196159 C2.93102087,1.01730064 4.50126621,2.80296115 5.33101256,4.50063487 L13.9524094,4.5 C14.5046942,4.5 14.9524094,4.94771525 14.9524094,5.5 C14.9524094,6.01283584 14.5663693,6.43550716 14.0690306,6.49327227 L13.9524094,6.5 L5.90141855,6.50011131 C5.97184044,7.10336687 6.00257028,7.82402974 5.99501196,8.66571219 L5.98218613,9.31972163 L5.95513386,10.0194521 C5.94944692,10.1399027 5.9431727,10.2622725 5.93631393,10.3865685 L5.88816877,11.1555153 L5.82612621,11.9710298 L5.75031786,12.8334505 L5.66087533,13.7431161 C5.45619667,16.4125878 6.65448652,17.9077022 8.95397765,17.9958639 L9.17277191,18 L15.925436,18 C17.8912868,18 19.613422,16.7641807 20.1987752,14.9739649 L20.259091,14.7728052 L21.0353348,11.9307709 C21.18085,11.398001 21.7307088,11.0840691 22.2634787,11.2295844 C22.7581936,11.3647057 23.0642165,11.8484701 22.9889024,12.3434553 L22.9646652,12.4577282 L22.1884214,15.2997625 C21.452581,17.9938693 19.0075582,19.8860583 16.1832035,19.995033 L15.925436,20 L9.17277191,20 C5.52592454,20 3.36940524,17.4679824 3.66906494,13.5642048 L3.74650003,12.7792089 L3.81327974,12.0320608 L3.86950469,11.3230711 L3.91527552,10.6525502 L3.95069284,10.0208087 L3.97585729,9.4281571 L3.99086948,8.87490586 C3.99253108,8.78599794 3.99377387,8.69874463 3.99459993,8.61315242 L3.99457241,8.11958395 L3.98464421,7.66619213 L3.96491594,7.25328746 C3.92392466,6.59902482 3.84251906,6.11475245 3.72279547,5.80693924 C3.15984723,4.35958121 1.6746116,2.59202056 0.47451658,1.85080384 C0.00463059387,1.56058736 -0.14102032,0.944402567 0.149196159,0.47451658 C0.439412638,0.00463059387 1.05559743,-0.14102032 1.52548342,0.149196159 Z M22.0890555,1.64235813 L22.1008077,1.77084406 L22.1002157,4.04445774 L24.3704077,4.04538841 C24.8511178,4.04538841 25.2472892,4.40722341 25.3014325,4.87340391 L25.3077384,4.98271912 C25.3077384,5.46342917 24.9459034,5.8596006 24.4797229,5.91374392 L24.3704077,5.92004982 L22.1002157,5.91945774 L22.1008077,8.18964979 C22.1008077,8.67035984 21.7389728,9.06653128 21.2727922,9.12067459 L21.163477,9.1269805 C20.682767,9.1269805 20.2865956,8.7651455 20.2324522,8.298965 L20.2261463,8.18964979 L20.2252157,5.91945774 L17.951602,5.92004982 C16.7532715,5.87273304 16.7096025,4.21954099 17.8231161,4.05714062 L17.951602,4.04538841 L20.2252157,4.04445774 L20.2261463,1.77084406 C20.2734631,0.572513616 21.9266552,0.528844526 22.0890555,1.64235813 Z M9.42026734,22.8241498 C9.42026734,22.1770635 8.89569021,21.6524864 8.24860395,21.6524864 C6.69394724,21.7143971 6.69530637,23.9345118 8.24860395,23.9958132 C8.89569021,23.9958132 9.42026734,23.471236 9.42026734,22.8241498 Z M18.7467079,22.8241498 C18.7467079,22.1770635 18.2221307,21.6524864 17.5750445,21.6524864 C16.0203878,21.7143971 16.0217469,23.9345118 17.5750445,23.9958132 C18.2221307,23.9958132 18.7467079,23.471236 18.7467079,22.8241498 Z" id="Shape" fill="#fff" fill-rule="nonzero"></path>
    </g>
</svg>