<?xml version="1.0" encoding="UTF-8"?>
<svg width="24px" height="24px" viewBox="0 0 24 24" version="1.1" xmlns="http://www.w3.org/2000/svg" xmlns:xlink="http://www.w3.org/1999/xlink">
    <title>icons/cart</title>
    <g id="icons/cart" stroke="none" stroke-width="1" fill="none" fill-rule="evenodd">
        <g id="shopping" fill="#000000" fill-rule="nonzero">
            <path d="M17.152777,20.2464904 L9.88893269,20.2464904 C6.78786778,20.2464904 4.26494845,17.723571 4.26494845,14.6225061 L4.26494845,8.85792227 C4.26494845,5.97516168 2.82811421,3.30681549 0.421470754,1.72000834 C-0.0107324343,1.43505981 -0.130054633,0.853727302 0.154893902,0.421524113 C0.439842436,-0.0107259423 1.02112807,-0.130095008 1.453425,0.15494726 C2.82727061,1.06078365 3.94185056,2.25550537 4.73886286,3.63103819 C4.91109737,3.82398771 6.29994028,5.29606559 8.57671657,5.29606559 L19.3704077,5.29606559 C22.3152196,5.24099741 24.6201627,8.19626052 23.8502392,11.0387159 L22.6077136,15.9911027 C21.9790928,18.4965877 19.7359667,20.2464904 17.152777,20.2464904 Z M5.90312133,6.64118202 C6.05895256,7.36109886 6.13960986,8.10341792 6.13960986,8.85792227 L6.13960986,14.6225061 C6.13960986,16.6898827 7.82155608,18.3718289 9.88893269,18.3718289 L17.152777,18.3718289 C18.8748878,18.3718289 20.3703052,17.2052271 20.7893858,15.5349038 L22.0319114,10.582517 C22.4894225,8.89354084 21.1196543,7.13806102 19.3704077,7.170727 L8.5766697,7.170727 C7.54696505,7.170727 6.65068943,6.94872022 5.90312133,6.64118202 Z M9.42026734,22.8241498 C9.42026734,22.1770635 8.89569021,21.6524864 8.24860395,21.6524864 C6.69394724,21.7143971 6.69530637,23.9345118 8.24860395,23.9958132 C8.89569021,23.9958132 9.42026734,23.471236 9.42026734,22.8241498 Z M18.7467079,22.8241498 C18.7467079,22.1770635 18.2221307,21.6524864 17.5750445,21.6524864 C16.0203878,21.7143971 16.0217469,23.9345118 17.5750445,23.9958132 C18.2221307,23.9958132 18.7467079,23.471236 18.7467079,22.8241498 Z M20.3077384,9.98271912 C20.3077384,9.46503137 19.8880955,9.04538841 19.3704077,9.04538841 L8.95160198,9.04538841 C7.7079516,9.09487947 7.70888893,10.8709806 8.95160198,10.9200498 L19.3704077,10.9200498 C19.8880955,10.9200498 20.3077384,10.5004069 20.3077384,9.98271912 Z" id="Shape"></path>
        </g>
    </g>
</svg>