<?xml version="1.0" encoding="UTF-8"?>
<svg width="24px" height="24px" viewBox="0 0 24 24" version="1.1" xmlns="http://www.w3.org/2000/svg" xmlns:xlink="http://www.w3.org/1999/xlink">
    <title>icons/categories</title>
    <g id="icons/categories" stroke="none" stroke-width="1" fill="none" fill-rule="evenodd">
        <path d="M17,2 C20.3137085,2 23,4.6862915 23,8 L23,16 C23,19.3137085 20.3137085,22 17,22 L8,22 C4.6862915,22 2,19.3137085 2,16 L2,8 C2,4.6862915 4.6862915,2 8,2 L17,2 Z M11.5,13 L4,13 L4,16 C4,18.1421954 5.68396847,19.8910789 7.80035966,19.9951047 L8,20 L11.5,20 L11.5,13 Z M21,13 L13.5,13 L13.5,20 L17,20 C19.1421954,20 20.8910789,18.3160315 20.9951047,16.1996403 L21,16 L21,13 Z M11.5,4 L8,4 C5.85780461,4 4.10892112,5.68396847 4.00489531,7.80035966 L4,8 L4,11 L11.5,11 L11.5,4 Z M17,4 L13.5,4 L13.5,11 L21,11 L21,8 C21,5.85780461 19.3160315,4.10892112 17.1996403,4.00489531 L17,4 Z" id="Combined-Shape" fill="#000000" fill-rule="nonzero"></path>
    </g>
</svg>