<?xml version="1.0" encoding="UTF-8"?>
<svg width="24px" height="24px" viewBox="0 0 24 24" version="1.1" xmlns="http://www.w3.org/2000/svg" xmlns:xlink="http://www.w3.org/1999/xlink">
    <title>icons/chat</title>
    <g id="icons/chat" stroke="none" stroke-width="1" fill="none" fill-rule="evenodd">
        <g id="speech-bubble" transform="translate(0.000000, 0.002178)" fill="#000000" fill-rule="nonzero">
            <path d="M0.937210907,23.9978168 C0.816427125,23.9978168 0.694659074,23.9744704 0.578656024,23.9264287 C0.228397117,23.7813195 0,23.4394971 0,23.0603664 L0.000515569113,12.1123031 C-0.0735857733,1.39301196 12.970969,-4.05702226 20.5280404,3.54026358 C28.0049174,11.1266287 22.6067682,24.0072325 11.9430648,23.9978168 C10.0541601,23.9978168 8.25093373,23.5742013 6.58353635,22.7386044 C4.99028718,21.9401284 3.06135565,22.2621248 1.78358791,23.5398925 L1.60023279,23.7232476 C1.42090847,23.9025719 1.18112197,23.9978168 0.937210907,23.9978168 Z M4.74637612,20.4287141 C5.65668369,20.4287141 6.57247505,20.6359729 7.42353904,21.0624892 C8.83038654,21.7676471 10.3552525,22.1245147 11.9536574,22.1230267 C20.9143423,22.1361853 25.5063289,11.1903718 19.1958567,4.85941746 C12.7948787,-1.54629442 1.82886425,3.04184885 1.87526547,12.0987577 C1.87526547,12.1017574 1.87531234,12.1048039 1.87531234,12.1078036 L1.87489051,21.1568852 C2.76316922,20.6765623 3.7513746,20.4287141 4.74637612,20.4287141 L4.74637612,20.4287141 Z M9.18650419,11.9991123 C9.18650419,12.6462452 8.66188918,13.1708602 8.0147562,13.1708602 C6.46045594,13.1091326 6.46087777,10.8888576 8.0147562,10.8273643 C8.66188918,10.8273643 9.18650419,11.3519793 9.18650419,11.9991123 Z M12.0455693,10.8273643 C11.3984363,10.8273643 10.8738213,11.3519793 10.8738213,11.9991123 C10.935549,13.5534125 13.1558239,13.5529907 13.2173172,11.9991123 C13.2173172,11.3519793 12.6927022,10.8273643 12.0455693,10.8273643 Z M16.0763823,10.8273643 C15.4292494,10.8273643 14.9046343,11.3519793 14.9046343,11.9991123 C14.966362,13.5534125 17.186637,13.5529907 17.2481303,11.9991123 C17.2481303,11.3519793 16.7235153,10.8273643 16.0763823,10.8273643 Z" id="Shape"></path>
        </g>
    </g>
</svg>