<?xml version="1.0" encoding="UTF-8"?>
<svg width="24px" height="24px" viewBox="0 0 24 24" version="1.1" xmlns="http://www.w3.org/2000/svg" xmlns:xlink="http://www.w3.org/1999/xlink">
    <title>icons/check</title>
    <g id="icons/check" stroke="none" stroke-width="1" fill="none" fill-rule="evenodd">
        <g id="fi-rr-check" transform="translate(0.000000, 3.000000)" fill="#000000" fill-rule="nonzero">
            <path d="M22.2893605,0.294263725 L8.47155613,14.1110681 C8.28392387,14.299442 8.02899441,14.4053319 7.76311743,14.4053319 C7.49724045,14.4053319 7.242311,14.299442 7.05467874,14.1110681 L1.71114112,8.76253095 C1.52350886,8.57415711 1.2685794,8.46826723 1.00270242,8.46826723 C0.736825443,8.46826723 0.481895985,8.57415711 0.294263725,8.76253095 L0.294263725,8.76253095 C0.105889885,8.95016321 0,9.20509267 0,9.47096965 C0,9.73684663 0.105889885,9.99177609 0.294263725,10.1794083 L5.63980117,15.5239459 C6.81394289,16.6959077 8.71529172,16.6959077 9.88943344,15.5239459 L23.7062379,1.71014121 C23.894305,1.52254891 24,1.267834 24,1.00220247 C24,0.73657093 23.894305,0.481856018 23.7062379,0.294263725 L23.7062379,0.294263725 C23.5186056,0.105889885 23.2636761,0 22.9977992,0 C22.7319222,0 22.4769927,0.105889885 22.2893605,0.294263725 Z" id="Path"></path>
        </g>
    </g>
</svg>