<?xml version="1.0" encoding="UTF-8"?>
<svg width="24px" height="24px" viewBox="0 0 24 24" version="1.1" xmlns="http://www.w3.org/2000/svg" xmlns:xlink="http://www.w3.org/1999/xlink">
    <title>icons/copy</title>
    <g id="icons/copy" stroke="none" stroke-width="1" fill="none" fill-rule="evenodd">
        <g id="fi-rr-copy-alt" transform="translate(2.000000, 0.000000)" fill="#000000" fill-rule="nonzero">
            <path d="M10.9999841,20.0000058 C13.7600333,19.9966997 15.9966708,17.7600622 16,15.0000172 L16,6.24302563 C16.0031185,5.18128648 15.5810488,4.16248494 14.8279786,3.41402971 L12.5859818,1.17203294 C11.8375266,0.418962788 10.8187251,-0.00310699147 9.75698592,1.72215925e-05 L5,1.72215925e-05 C2.23994362,0.00334074657 0.00330611156,2.23997825 0,5.00002742 L0,15.0000172 C0.00330611156,17.7600622 2.23994362,19.9966997 5,20.0000058 L10.9999841,20.0000058 Z M1.99999711,15.000013 L1.99999711,5.00003175 C1.99999711,3.34317556 3.34314093,2.00003175 4.99999711,2.00003175 C4.99999711,2.00003175 9.91898569,2.01403173 9.99998557,2.02403171 L9.99998557,4.00003175 C9.99998557,5.10459677 10.8954148,6.00003175 11.9999827,6.00003175 L13.9759798,6.00003175 C13.9859798,6.08102586 13.9999798,15.000013 13.9999798,15.000013 C13.9999798,16.6568648 12.656836,18.0000087 10.9999841,18.0000087 L4.99999711,18.0000087 C3.34314093,18.0000087 1.99999711,16.6568648 1.99999711,15.000013 L1.99999711,15.000013 Z M19.9999711,8.00002453 L19.9999711,19.0000072 C19.996665,21.7600564 17.7600275,23.9966939 14.9999784,24 L5.99999278,24 C5.44770739,24 4.99999278,23.5522854 4.99999278,23.0000014 C4.99999278,22.4477175 5.44770739,22.0000029 5.99999278,22.0000029 L14.9999784,22.0000029 C16.6568302,22.0000029 17.999974,20.6568591 17.999974,19.0000072 L17.999974,8.00002453 C17.999974,7.44773914 18.4476886,7.00002453 18.9999726,7.00002453 C19.5522565,7.00002453 19.9999711,7.44773914 19.9999711,8.00002453 Z" id="Shape"></path>
        </g>
    </g>
</svg>