<?xml version="1.0" encoding="UTF-8"?>
<svg width="24px" height="24px" viewBox="0 0 24 24" version="1.1" xmlns="http://www.w3.org/2000/svg" xmlns:xlink="http://www.w3.org/1999/xlink">
    <title>icons/customer</title>
    <g id="icons/customer" stroke="none" stroke-width="1" fill="none" fill-rule="evenodd">
        <g id="star" transform="translate(0.000000, 1.127302)" fill="#000000" fill-rule="nonzero">
            <path d="M10.3262044,2.28592933 C11.0103909,0.899509375 12.9894975,0.899087501 13.6739185,2.2859762 L13.6739185,2.2859762 L15.4459316,5.87640873 L19.408223,6.45217356 C20.938174,6.67450137 21.5501732,8.55638939 20.4428935,9.63601289 L20.4428935,9.63601289 L17.5756943,12.4307903 L18.2525215,16.3770036 C18.5138961,17.9011889 16.9108202,19.0632655 15.5441346,18.3448133 L15.5441346,18.3448133 L12.0001083,16.4815347 L8.45612883,18.3448133 C7.08752135,19.0641092 5.48632044,17.9014233 5.74774196,16.3770036 L5.74774196,16.3770036 L6.42456914,12.4308371 L3.55741687,9.63605977 C2.45032465,8.55681126 3.06129255,6.67454825 4.59189981,6.45217356 L4.59189981,6.45217356 L8.55419119,5.87636185 Z M12.2391705,2.99406897 C12.1408268,2.79475675 11.8592491,2.79489737 11.7609524,2.9940221 L11.7609524,2.9940221 L9.80279884,6.96165722 C9.68626775,7.19776627 9.46098681,7.3613598 9.20045592,7.39923474 L9.20045592,7.39923474 L4.82196199,8.03546824 C4.60207167,8.06748382 4.51502491,8.33523345 4.67416532,8.49034261 L4.67416532,8.49034261 L7.84248905,11.5786508 C8.03102004,11.7624474 8.11703555,12.027244 8.07255123,12.2867436 L8.07255123,12.2867436 L7.32461477,16.6475657 C7.28706795,16.8665185 7.51483326,17.0320339 7.71152048,16.9286747 L7.71152048,16.9286747 L11.6277807,14.8697869 C11.860796,14.7473027 12.13928,14.7473027 12.3722953,14.8697869 L12.3722953,14.8697869 L16.2885555,16.9286747 C16.485149,17.0319401 16.713008,16.8665654 16.6754612,16.6475657 L16.6754612,16.6475657 L15.9275247,12.2867436 C15.8830404,12.027244 15.9690559,11.7624474 16.1575869,11.5786508 L16.1575869,11.5786508 L19.3259106,8.49034261 C19.4850042,8.33528032 19.3980043,8.06748382 19.1781608,8.03546824 L19.1781608,8.03546824 L14.7996669,7.39923474 C14.539136,7.36140667 14.3138551,7.19776627 14.197324,6.96165722 L14.197324,6.96165722 Z M2.13246572,12.9340396 C2.55274638,12.7973523 3.00405826,13.0275082 3.14051119,13.4476482 C3.27705788,13.8678352 3.04713632,14.319147 2.62690253,14.4556937 L2.62690253,14.4556937 L1.04740472,14.9689274 C0.628155301,15.1053334 0.176093427,14.8762088 0.0393592416,14.4553187 C-0.0971405692,14.0350849 0.132780987,13.5838199 0.552967905,13.4472732 L0.552967905,13.4472732 Z M20.859471,13.4476482 C20.9960177,13.0274613 21.4473296,12.7972585 21.8675165,12.9340396 L21.8675165,12.9340396 L23.4470143,13.4472732 C23.8672012,13.5838199 24.0971697,14.0351318 23.960623,14.4553187 C23.8238888,14.8761619 23.3718738,15.1052866 22.9525775,14.9689274 L22.9525775,14.9689274 L21.3730797,14.4556937 C20.9528459,14.3191939 20.7229243,13.8678352 20.859471,13.4476482 Z M4.24136904,0.15288541 C4.59874355,-0.10689548 5.09899286,-0.0275830902 5.35877375,0.329791415 L5.35877375,0.329791415 L6.31553804,1.64664896 C6.57527206,2.00407034 6.49600654,2.50436653 6.13858516,2.76400679 C5.78130441,3.02364706 5.2810551,2.94466279 5.02118046,2.58710079 L5.02118046,2.58710079 L4.06441616,1.27029011 C3.80468215,0.912868732 3.88394766,0.41257255 4.24136904,0.15288541 Z M18.6413022,0.32983829 C18.9010362,-0.0275830902 19.4013324,-0.106754855 19.7587069,0.152932285 C20.1161283,0.41257255 20.1953469,0.912915607 19.9356598,1.27033699 L19.9356598,1.27033699 L18.9788955,2.58714766 C18.7193021,2.94442842 18.2190528,3.02383456 17.8614908,2.76405367 C17.5040694,2.5044134 17.4248039,2.00407034 17.6845379,1.64664896 L17.6845379,1.64664896 Z M12.0000145,19.6491084 C11.5582183,19.6491084 11.2000469,20.0072798 11.2000469,20.449076 L11.2000469,22.07273 C11.2000469,22.5145263 11.5582183,22.8726977 12.0000145,22.8726977 C12.4418108,22.8726977 12.7999822,22.5145263 12.7999822,22.07273 L12.7999822,20.449076 C12.8000291,20.0072329 12.4418577,19.6491084 12.0000145,19.6491084 Z" id="Combined-Shape"></path>
        </g>
    </g>
</svg>