<?xml version="1.0" encoding="UTF-8"?>
<svg width="24px" height="24px" viewBox="0 0 24 24" version="1.1" xmlns="http://www.w3.org/2000/svg" xmlns:xlink="http://www.w3.org/1999/xlink">
    <title>icons/dollar</title>
    <g id="icons/dollar" stroke="none" stroke-width="1" fill="none" fill-rule="evenodd">
        <g id="$" transform="translate(7.000000, 2.000000)" fill="#000000" fill-rule="nonzero">
            <path d="M10.648,12.892 C10.648,13.6253333 10.4683333,14.3146667 10.109,14.96 C9.74966667,15.6053333 9.22166667,16.148 8.525,16.588 C7.82833333,17.028 7.00333333,17.292 6.05,17.38 L6.05,19.162 L4.62,19.162 L4.62,17.38 C3.24133333,17.248 2.12666667,16.8153333 1.276,16.082 C0.425333333,15.3486667 0,14.3806667 0,13.178 L2.684,13.178 C2.728,13.75 2.91133333,14.223 3.234,14.597 C3.55666667,14.971 4.01866667,15.2093333 4.62,15.312 L4.62,10.472 C3.63733333,10.2226667 2.838,9.96966667 2.222,9.713 C1.606,9.45633333 1.08166667,9.04933333 0.649,8.492 C0.216333333,7.93466667 0,7.172 0,6.204 C0,4.98666667 0.425333333,3.97833333 1.276,3.179 C2.12666667,2.37966667 3.24133333,1.914 4.62,1.782 L4.62,0 L6.05,0 L6.05,1.782 C7.34066667,1.89933333 8.37833333,2.30633333 9.163,3.003 C9.94766667,3.69966667 10.3913333,4.65666667 10.494,5.874 L7.81,5.874 C7.766,5.41933333 7.59,5.01233333 7.282,4.653 C6.974,4.29366667 6.56333333,4.048 6.05,3.916 L6.05,8.668 C7.03266667,8.90266667 7.832,9.14833333 8.448,9.405 C9.064,9.66166667 9.58466667,10.065 10.01,10.615 C10.4353333,11.165 10.648,11.924 10.648,12.892 Z M2.552,6.072 C2.552,6.67333333 2.73166667,7.14266667 3.091,7.48 C3.45033333,7.81733333 3.96,8.08866667 4.62,8.294 L4.62,3.85 C3.98933333,3.92333333 3.487,4.15066667 3.113,4.532 C2.739,4.91333333 2.552,5.42666667 2.552,6.072 Z M6.05,15.312 C6.69533333,15.2093333 7.20133333,14.949 7.568,14.531 C7.93466667,14.113 8.118,13.6106667 8.118,13.024 C8.118,12.4373333 7.93833333,11.979 7.579,11.649 C7.21966667,11.319 6.71,11.0513333 6.05,10.846 L6.05,15.312 Z" id="Shape"></path>
        </g>
    </g>
</svg>