<?xml version="1.0" encoding="UTF-8"?>
<svg width="24px" height="24px" viewBox="0 0 24 24" version="1.1" xmlns="http://www.w3.org/2000/svg" xmlns:xlink="http://www.w3.org/1999/xlink">
    <title>icons/download</title>
    <g id="icons/download" stroke="none" stroke-width="1" fill="none" fill-rule="evenodd">
        <path d="M12.0023749,11.0068626 C12.5149237,11.0068626 12.9373585,11.3926867 12.9950913,11.889747 L13.0018152,12.0063029 L13.001,18.588 L15.2934252,16.2967935 C15.6537074,15.9365113 16.220621,15.9087973 16.6126927,16.2136515 L16.7068473,16.2967935 C17.0671295,16.6570757 17.0948435,17.2239893 16.7899893,17.616061 L16.7068473,17.7102156 L12.7090859,21.7079769 C12.6806356,21.7364273 12.6504779,21.7631704 12.6187798,21.7880393 L12.7090859,21.7079769 C12.6737117,21.7433512 12.6363455,21.7755194 12.5973483,21.8044815 C12.573186,21.822316 12.5483441,21.839078 12.5227437,21.8547205 C12.5115922,21.8616339 12.5002867,21.8682348 12.488883,21.8745951 C12.4668665,21.8868165 12.4438315,21.8985498 12.4203032,21.9093957 C12.4061964,21.9159022 12.3928738,21.9216635 12.3794567,21.9271212 C12.3591987,21.9354079 12.3377205,21.9433384 12.31591,21.9505382 C12.2985104,21.956202 12.2815485,21.9612803 12.2644882,21.9658989 C12.246239,21.9709401 12.2272153,21.9755133 12.2079886,21.979534 C12.1858835,21.9840647 12.1638606,21.9879013 12.1417539,21.9909974 C12.1259596,21.9932761 12.1095989,21.9951589 12.093123,21.9966418 C12.0735467,21.9983666 12.0544729,21.9995374 12.0353846,22.0001643 C12.0247643,22.0005214 12.0135912,22.0007062 12.0023749,22.0007062 L11.9693652,22.0001643 C11.9506131,21.9995485 11.931875,21.9984077 11.9131748,21.996742 L12.0023749,22.0007062 C11.9541474,22.0007062 11.9067178,21.9972903 11.8603148,21.9906872 C11.8392314,21.9876005 11.8185451,21.9839751 11.7979675,21.9796962 C11.7783298,21.9757042 11.7589038,21.9710469 11.7397075,21.9658317 C11.7232013,21.9612803 11.7062394,21.956202 11.6893956,21.950664 C11.6657858,21.9429279 11.6431031,21.9345012 11.6208259,21.9252924 C11.6102885,21.9209522 11.5993109,21.9161986 11.5884041,21.9112389 C11.5614132,21.8989015 11.5353037,21.8855632 11.5098884,21.8711431 C11.500914,21.866147 11.4919587,21.8608845 11.4830695,21.8554707 C11.4617272,21.8423679 11.440836,21.8285356 11.4205141,21.8139599 C11.4104385,21.8068317 11.4000687,21.799089 11.3898185,21.791119 L11.3811303,21.7842183 C11.351199,21.7604371 11.3226627,21.7349757 11.2956639,21.7079769 L7.29790254,17.7102156 C6.90759681,17.3199099 6.90759681,16.6870992 7.29790254,16.2967935 C7.65818475,15.9365113 8.22509834,15.9087973 8.61717,16.2136515 L8.71132461,16.2967935 L11.002,18.587 L11.0029346,12.0063029 C11.0029346,11.4543272 11.4503993,11.0068626 12.0023749,11.0068626 Z M10.0243064,2.05933042 C13.4413025,2.45289151 16.3077544,4.75359125 17.4569525,7.94402236 L17.4783085,8.00854156 L17.9982351,8.00854187 C20.5323376,8.00655965 22.7844267,9.59610072 23.6410053,11.9625764 L23.7195062,12.1939882 C24.5095832,14.6876686 23.5920658,17.4057544 21.4523009,18.910437 C21.0007847,19.2279432 20.3773688,19.1193066 20.0598626,18.6677904 C19.7423563,18.2162741 19.8509929,17.5928582 20.3025092,17.275352 C21.7290191,16.2722303 22.3406974,14.4601731 21.8139794,12.7977195 C21.3083302,11.2017641 19.8655553,10.0972477 18.207361,10.012647 L17.9990169,10.0074222 L16.7397221,10.0074222 C16.2834193,10.0074222 15.8850546,9.69837068 15.7716435,9.25638636 C15.051322,6.44915908 12.6747279,4.37669478 9.79559235,4.04508312 C6.91645678,3.71347146 4.13093995,5.19137667 2.79128695,7.76134122 C1.45163396,10.3313058 1.83523632,13.4611871 3.75587207,15.6315664 C4.12166989,16.0449295 4.08311059,16.6765643 3.66974746,17.0423621 C3.25638433,17.4081599 2.62474958,17.3696006 2.25895176,16.9562375 C-0.21043707,14.1657498 -0.703640106,10.1416167 1.01877089,6.83737655 C2.74118188,3.53313642 6.32256066,1.63297256 10.0243064,2.05933042 Z" id="Combined-Shape" fill="#000000" fill-rule="nonzero"></path>
    </g>
</svg>