<?xml version="1.0" encoding="UTF-8"?>
<svg width="24px" height="24px" viewBox="0 0 24 24" version="1.1" xmlns="http://www.w3.org/2000/svg" xmlns:xlink="http://www.w3.org/1999/xlink">
    <title>icons/email</title>
    <g id="icons/email" stroke="none" stroke-width="1" fill="none" fill-rule="evenodd">
        <g id="mail" transform="translate(1.000000, 3.000000)" fill="#000000" fill-rule="nonzero">
            <path d="M19,0 C20.6522847,0 22,1.34771525 22,3 L22,3 L22,15 C22,16.6522847 20.6522847,18 19,18 L19,18 L3,18 C1.34771525,18 0,16.6522847 0,15 L0,15 L0,3 C0,1.34771525 1.34771525,0 3,0 L3,0 Z M20,4.92 L11.5734623,10.8192319 C11.2674,11.0334756 10.8712918,11.0572804 10.5452193,10.8906465 L10.4265377,10.8192319 L2,4.921 L2,15 C2,15.5085927 2.38998022,15.934901 2.88422317,15.9932073 L3,16 L19,16 C19.5477153,16 20,15.5477153 20,15 L20,15 L20,4.92 Z M19,2 L3,2 C2.61200142,2 2.27189207,2.22696691 2.10652962,2.55404305 L11,8.779 L19.8934704,2.55404305 C19.7281079,2.22696691 19.3879986,2 19,2 L19,2 Z" id="Combined-Shape"></path>
        </g>
    </g>
</svg>