<?xml version="1.0" encoding="UTF-8"?>
<svg width="24px" height="24px" viewBox="0 0 24 24" version="1.1" xmlns="http://www.w3.org/2000/svg" xmlns:xlink="http://www.w3.org/1999/xlink">
    <title>icons/flags/eng</title>
    <g id="icons/flags/eng" stroke="none" stroke-width="1" fill="none" fill-rule="evenodd">
        <g id="260-united-kingdom" transform="translate(1.000000, 0.000000)" fill-rule="nonzero">
            <path d="M21.2548125,13.9099687 L21.2541562,10.0900781 L21.2539219,8.81676562 L21.2535469,6.82523437 C21.2535,6.28115625 20.9856562,5.77575 20.5438594,5.46839062 C20.5057969,5.44190625 20.4668906,5.41635937 20.42625,5.392875 L19.3147969,4.7514375 L18.2742656,4.15096875 L17.4366094,3.66754687 L12.9835312,1.09757812 L12.0462656,0.5566875 L11.4654844,0.221484375 C10.9537031,-0.073921875 10.3231406,-0.073828125 9.81140625,0.221765625 L9.23451563,0.554953125 L8.29734375,1.09626562 L3.844875,3.66796875 L2.44110937,4.47871875 L1.40090625,5.0795625 L0.852609375,5.39625 C0.8131875,5.41903125 0.775359375,5.44382812 0.73828125,5.46942187 C0.294609375,5.77673437 0.02578125,6.28340625 0.02578125,6.82884375 L0.026109375,8.8168125 L0.02634375,10.090125 L0.027,13.9100156 L0.027234375,15.1833281 L0.0275625,17.1748125 C0.027703125,17.7188906 0.295453125,18.2242969 0.73725,18.5316562 C0.7753125,18.5581406 0.81421875,18.5836875 0.854859375,18.6071719 L1.95065625,19.2395625 L2.9911875,19.8400781 L3.8445,20.3325469 L8.29757813,22.9025156 L9.23484375,23.4434062 L9.815625,23.7786094 C10.3274063,24.0740156 10.9579687,24.0738281 11.4697031,23.7783281 L12.0465937,23.4451406 L12.9838594,22.9038281 L17.4364687,20.332125 L18.7173281,19.5923437 L19.7575312,18.9915 L20.4287344,18.6038437 C20.4681562,18.5810625 20.5059844,18.5563594 20.5430625,18.530625 C20.9867344,18.2233125 21.2555625,17.7166406 21.2555625,17.1712031 L21.2551875,15.1832344 L21.2548125,13.9099687 Z" id="Path" fill="#F5F5F5"></path>
            <g id="Group" transform="translate(0.000000, 1.078125)" fill="#41479B">
                <polygon id="Path" points="12.9836719 21.8256563 17.4362813 19.2539531 12.9836719 15.2907656"></polygon>
                <polygon id="Path" points="17.43675 2.58942187 12.9836719 0.019453125 12.9836719 6.55303125"></polygon>
                <polygon id="Path" points="3.84445313 19.2543281 8.29748438 21.8242969 8.29748438 15.2907656"></polygon>
                <path d="M20.5429219,17.4524531 C20.9865938,17.1451406 21.2554688,16.6384688 21.2554219,16.0930313 L21.2550469,14.1050625 L16.7821875,14.1050625 L20.5429219,17.4524531 Z" id="Path"></path>
                <path d="M0.0271875,14.1051562 L0.027515625,16.0966406 C0.02765625,16.6407188 0.29540625,17.146125 0.737203125,17.4534844 L4.49901563,14.1051094 L0.0271875,14.1051094 L0.0271875,14.1051562 Z" id="Path"></path>
                <path d="M0.738328125,4.39125 C0.29465625,4.6985625 0.02578125,5.20523438 0.025828125,5.75067188 L0.02615625,7.73864063 L4.49901563,7.73864063 L0.738328125,4.39125 Z" id="Path"></path>
                <path d="M21.2539688,7.73864063 L21.2535938,5.74710938 C21.2535469,5.20303125 20.9857031,4.697625 20.5439063,4.39026563 L16.7820938,7.73864063 L21.2539688,7.73864063 Z" id="Path"></path>
                <polygon id="Path" points="8.29748437 0.018140625 3.844875 2.58984375 8.29748437 6.55303125"></polygon>
            </g>
            <g id="Group" fill="#FF4B55">
                <path d="M12.0464531,0.556640625 L11.465625,0.221484375 C10.9538438,-0.073921875 10.3232813,-0.073828125 9.81154688,0.221765625 L9.23465625,0.554953125 L9.23465625,10.0900781 L0.02634375,10.0900781 L0.027,13.9099687 L9.23470313,13.9099687 L9.23470313,23.4433594 L9.81548438,23.7785625 C10.3272656,24.0739687 10.9578281,24.0737812 11.4695625,23.7782812 L12.0464531,23.4450937 L12.0464531,13.9099687 L21.2548125,13.9099687 L21.2541562,10.0900781 L12.0464531,10.0900781 L12.0464531,0.556640625 Z" id="Path"></path>
                <polygon id="Path" points="6.55021875 15.1832813 1.9505625 19.2395156 2.99109375 19.8400313 8.27170313 15.1832813"></polygon>
                <polygon id="Path" points="13.7174531 15.1832813 18.7171406 19.5922969 19.7573906 18.9915 15.4388906 15.1832813"></polygon>
                <polygon id="Path" points="7.36021875 8.81676563 2.44110938 4.47871875 1.40085938 5.0795625 5.63873438 8.81676563"></polygon>
                <polygon id="Path" points="12.9836719 8.81676563 14.7051562 8.81676563 19.3149375 4.75153125 18.2744063 4.15096875"></polygon>
            </g>
        </g>
    </g>
</svg>