<?xml version="1.0" encoding="UTF-8"?>
<svg width="24px" height="24px" viewBox="0 0 24 24" version="1.1" xmlns="http://www.w3.org/2000/svg" xmlns:xlink="http://www.w3.org/1999/xlink">
    <title>icons/euro</title>
    <g id="icons/euro" stroke="none" stroke-width="1" fill="none" fill-rule="evenodd">
        <g id="€" transform="translate(4.000000, 4.000000)" fill="#000000" fill-rule="nonzero">
            <path d="M9.394,13.354 C10.318,13.354 11.1283333,13.1596667 11.825,12.771 C12.5216667,12.3823333 13.068,11.8066667 13.464,11.044 L16.478,11.044 C15.906,12.5106667 14.9893333,13.64 13.728,14.432 C12.4666667,15.224 11.022,15.62 9.394,15.62 C7.678,15.62 6.15266667,15.1543333 4.818,14.223 C3.48333333,13.2916667 2.552,12.0486667 2.024,10.494 L0,10.494 L0,8.778 L1.628,8.778 C1.59866667,8.36733333 1.584,8.04466667 1.584,7.81 C1.584,7.57533333 1.59866667,7.25266667 1.628,6.842 L0,6.842 L0,5.126 L2.024,5.126 C2.552,3.57133333 3.48333333,2.32833333 4.818,1.397 C6.15266667,0.465666667 7.678,0 9.394,0 C11.0073333,0 12.4483333,0.399666667 13.717,1.199 C14.9856667,1.99833333 15.906,3.13133333 16.478,4.598 L13.464,4.598 C13.068,3.83533333 12.5216667,3.25966667 11.825,2.871 C11.1283333,2.48233333 10.318,2.288 9.394,2.288 C8.32333333,2.288 7.381,2.53733333 6.567,3.036 C5.753,3.53466667 5.13333333,4.23133333 4.708,5.126 L9.394,5.126 L9.394,6.842 L4.224,6.842 C4.18,7.15 4.158,7.47266667 4.158,7.81 C4.158,8.14733333 4.18,8.47 4.224,8.778 L9.394,8.778 L9.394,10.494 L4.708,10.494 C5.13333333,11.4033333 5.753,12.1073333 6.567,12.606 C7.381,13.1046667 8.32333333,13.354 9.394,13.354 Z" id="Path"></path>
        </g>
    </g>
</svg>