<?xml version="1.0" encoding="UTF-8"?>
<svg width="24px" height="24px" viewBox="0 0 24 24" version="1.1" xmlns="http://www.w3.org/2000/svg" xmlns:xlink="http://www.w3.org/1999/xlink">
    <title>icons/faq</title>
    <g id="icons/faq" stroke="none" stroke-width="1" fill="none" fill-rule="evenodd">
        <g id="help-circle" transform="translate(2.000000, 2.000000)" fill="#000000" fill-rule="nonzero">
            <path d="M10,-1 C16.0751322,-1 21,3.92486775 21,10 C21,16.0751322 16.0751322,21 10,21 C3.92486775,21 -1,16.0751322 -1,10 C-1,3.92486775 3.92486775,-1 10,-1 Z M10,1 C5.02943725,1 1,5.02943725 1,10 C1,14.9705627 5.02943725,19 10,19 C14.9705627,19 19,14.9705627 19,10 C19,5.02943725 14.9705627,1 10,1 Z M10.01,14 C10.5622847,14 11.01,14.4477153 11.01,15 C11.01,15.5128358 10.6239598,15.9355072 10.1266211,15.9932723 L10,16 C9.44771525,16 9,15.5522847 9,15 C9,14.4871642 9.38604019,14.0644928 9.88337887,14.0067277 L10.01,14 Z M10.596234,4.05310594 C12.5186231,4.38284678 13.9229036,6.0510253 13.9200168,8 C13.9200168,9.27972524 13.1618143,10.2906429 11.9747015,11.0820506 C11.3257819,11.5146631 10.6882584,11.7980066 10.2362274,11.9486834 C9.71228407,12.123331 9.14596419,11.8401708 8.9713166,11.3162274 C8.80914383,10.8297086 9.04171348,10.3066508 9.49526352,10.0945779 L9.79039432,9.98065209 L9.98261244,9.89868828 C10.2857157,9.76397588 10.5884455,9.60252018 10.8653019,9.41794942 C11.5531912,8.95935706 11.9200034,8.47027476 11.9200045,7.9985125 C11.9214551,7.02327937 11.2193138,6.18918878 10.2581187,6.02431827 C9.35032325,5.86860722 8.46146505,6.35270643 8.09287668,7.1819783 L8.03333444,7.33184353 C7.85006232,7.85283276 7.2791457,8.12660656 6.75815647,7.94333444 C6.23716724,7.76006232 5.96339344,7.1891457 6.14666556,6.66815647 C6.79391472,4.82821572 8.67384372,3.7233649 10.596234,4.05310594 Z" id="Combined-Shape"></path>
        </g>
    </g>
</svg>