<?xml version="1.0" encoding="UTF-8"?>
<svg width="24px" height="24px" viewBox="0 0 24 24" version="1.1" xmlns="http://www.w3.org/2000/svg" xmlns:xlink="http://www.w3.org/1999/xlink">
    <title>icons/favorites</title>
    <g id="icons/favorites" stroke="none" stroke-width="1" fill="none" fill-rule="evenodd">
        <path d="M12,6.06239487 C14.025057,4.43287111 16.025057,3.76897754 18,4.07071418 C20.9624145,4.52331913 23,6.66156865 23,10.0457562 C23,14.0789974 19.3333333,17.730412 12,21 C4.66666667,17.730412 1,14.0789974 1,10.0457562 C1,6.85414859 3,4.07071418 6,4.07071418 C8,4.07071418 10,4.73460774 12,6.06239487 Z M17.6979402,6.04777257 C16.3958642,5.8488382 15.022385,6.27154155 13.507614,7.42205857 L13.2538319,7.62056863 L12.113361,8.53828329 L10.8938006,7.72862498 C9.20734094,6.6089953 7.58575234,6.07071418 6,6.07071418 C4.327813,6.07071418 3,7.73208831 3,10.0457562 C3,12.8968563 5.76123561,15.8176721 11.6487266,18.6351284 L12,18.801 L12.3512734,18.6351284 C18.1134986,15.877618 20.8810854,13.0210995 20.9962465,10.2278344 L21,10.0457562 C21,7.75910037 19.7932524,6.36789951 17.6979402,6.04777257 Z" id="Oval" fill="#000000" fill-rule="nonzero"></path>
    </g>
</svg>