<?xml version="1.0" encoding="UTF-8"?>
<svg width="24px" height="24px" viewBox="0 0 24 24" version="1.1" xmlns="http://www.w3.org/2000/svg" xmlns:xlink="http://www.w3.org/1999/xlink">
    <title>icons/info</title>
    <g id="icons/info" stroke="none" stroke-width="1" fill="none" fill-rule="evenodd">
        <g id="info" transform="translate(2.000000, 2.000000)" fill="#000000" fill-rule="nonzero">
            <path d="M10,-1 C16.0751322,-1 21,3.92486775 21,10 C21,16.0751322 16.0751322,21 10,21 C3.92486775,21 -1,16.0751322 -1,10 C-1,3.92486775 3.92486775,-1 10,-1 Z M10,1 C5.02943725,1 1,5.02943725 1,10 C1,14.9705627 5.02943725,19 10,19 C14.9705627,19 19,14.9705627 19,10 C19,5.02943725 14.9705627,1 10,1 Z M10,9 C10.5128358,9 10.9355072,9.38604019 10.9932723,9.88337887 L11,10 L11,14 C11,14.5522847 10.5522847,15 10,15 C9.48716416,15 9.06449284,14.6139598 9.00672773,14.1166211 L9,14 L9,10 C9,9.44771525 9.44771525,9 10,9 Z M10.01,5 C10.5622847,5 11.01,5.44771525 11.01,6 C11.01,6.51283584 10.6239598,6.93550716 10.1266211,6.99327227 L10,7 C9.44771525,7 9,6.55228475 9,6 C9,5.48716416 9.38604019,5.06449284 9.88337887,5.00672773 L10.01,5 Z" id="Combined-Shape"></path>
        </g>
    </g>
</svg>