<?xml version="1.0" encoding="UTF-8"?>
<svg width="24px" height="24px" viewBox="0 0 24 24" version="1.1" xmlns="http://www.w3.org/2000/svg" xmlns:xlink="http://www.w3.org/1999/xlink">
    <title>icons/install</title>
    <g id="icons/install" stroke="none" stroke-width="1" fill="none" fill-rule="evenodd">
        <g id="settings" transform="translate(2.000000, 2.000000)" fill="#000000" fill-rule="nonzero">
            <path d="M10,-1 C11.5564388,-1 12.8181818,0.261742978 12.8181818,1.81818182 L12.8181818,1.81818182 L12.8181739,1.89601169 C12.8189687,2.09529742 12.9380313,2.27508191 13.1310381,2.35786469 C13.3180351,2.44039392 13.536436,2.40079374 13.6747114,2.26562049 L13.6747114,2.26562049 L13.7288636,2.21146847 C14.2574651,1.68227863 14.9747558,1.38493335 15.7227273,1.38493335 C16.4706988,1.38493335 17.1879895,1.68227863 17.7158043,2.21068182 C18.2449941,2.73928327 18.5423394,3.45657394 18.5423394,4.20454545 C18.5423394,4.95251697 18.2449941,5.66980764 17.7161977,6.19801587 L17.7161977,6.19801587 L17.669408,6.24471951 C17.526479,6.3908367 17.4868788,6.60923767 17.569408,6.79623466 C17.5881217,6.83863662 17.6038193,6.88218413 17.6164323,6.92655191 L17.6164323,6.92655191 L17.625,6.968 L17.6637784,7.01883736 C17.7377086,7.10004694 17.836708,7.15526921 17.9447737,7.1743975 L17.9447737,7.1743975 L18.0272727,7.18181818 L18.1818182,7.18181818 C19.738257,7.18181818 21,8.44356116 21,10 C21,11.5564388 19.738257,12.8181818 18.1818182,12.8181818 L18.1818182,12.8181818 L18.1039883,12.8181739 C17.9047026,12.8189687 17.7249181,12.9380313 17.6421353,13.1310381 C17.5596061,13.3180351 17.5992063,13.536436 17.7343795,13.6747114 L17.7343795,13.6747114 L17.7885315,13.7288636 C18.3177214,14.2574651 18.6150666,14.9747558 18.6150666,15.7227273 C18.6150666,16.4706988 18.3177214,17.1879895 17.7893182,17.7158043 C17.2607167,18.2449941 16.5434261,18.5423394 15.7954545,18.5423394 C15.047483,18.5423394 14.3301924,18.2449941 13.8019841,17.7161977 L13.8019841,17.7161977 L13.7552805,17.669408 C13.6091633,17.526479 13.3907623,17.4868788 13.1939314,17.5736853 C13.0107585,17.6521908 12.891696,17.8319753 12.8909091,18.0272727 L12.8909091,18.0272727 L12.8909091,18.1818182 C12.8909091,19.738257 11.6291661,21 10.0727273,21 C8.51628843,21 7.25454545,19.738257 7.25454545,18.1818182 L7.25454545,18.1818182 L7.25481891,18.1233846 C7.25001788,17.9181333 7.1202346,17.7366771 6.86896193,17.6421353 C6.68196494,17.5596061 6.46356397,17.5992063 6.3252886,17.7343795 L6.3252886,17.7343795 L6.27113636,17.7885315 C5.74253491,18.3177214 5.02524424,18.6150666 4.27727273,18.6150666 C3.52930121,18.6150666 2.81201054,18.3177214 2.28419575,17.7893182 C1.7550059,17.2607167 1.45766062,16.5434261 1.45766062,15.7954545 C1.45766062,15.047483 1.7550059,14.3301924 2.28380231,13.8019841 L2.28380231,13.8019841 L2.33059196,13.7552805 C2.47352101,13.6091633 2.51312119,13.3907623 2.42631472,13.1939314 C2.34780918,13.0107585 2.1680247,12.891696 1.97272727,12.8909091 L1.97272727,12.8909091 L1.81818182,12.8909091 C0.261742978,12.8909091 -1,11.6291661 -1,10.0727273 C-1,8.51628843 0.261742978,7.25454545 1.81818182,7.25454545 L1.81818182,7.25454545 L1.87661541,7.25481891 C2.08186668,7.25001788 2.26332294,7.1202346 2.35786469,6.86896193 C2.44039392,6.68196494 2.40079374,6.46356397 2.26562049,6.3252886 L2.26562049,6.3252886 L2.21146847,6.27113636 C1.68227863,5.74253491 1.38493335,5.02524424 1.38493335,4.27727273 C1.38493335,3.52930121 1.68227863,2.81201054 2.21068182,2.28419575 C2.73928327,1.7550059 3.45657394,1.45766062 4.20454545,1.45766062 C4.95251697,1.45766062 5.66980764,1.7550059 6.19801587,2.28380231 L6.19801587,2.28380231 L6.24471951,2.33059196 C6.3908367,2.47352101 6.60923767,2.51312119 6.79623466,2.43059196 C6.83863662,2.41187828 6.88218413,2.39618068 6.92655191,2.38356773 L6.92655191,2.38356773 L6.968,2.374 L7.01883736,2.33622162 C7.10004694,2.26229139 7.15526921,2.16329197 7.1743975,2.05522635 L7.1743975,2.05522635 L7.18181818,1.97272727 L7.18181818,1.81818182 C7.18181818,0.261742978 8.44356116,-1 10,-1 Z M10,1 C9.54813066,1 9.18181818,1.36631248 9.18181818,1.81818182 L9.18181818,1.81818182 L9.18181023,1.97671558 C9.17783613,2.97314425 8.58252327,3.87206667 7.66665871,4.26459437 C7.6251653,4.28237791 7.58261192,4.29729022 7.53929962,4.30926951 L7.53929962,4.30926951 L7.406,4.336 L7.24678294,4.38660381 C6.46169518,4.59893605 5.61508399,4.4152629 4.9808218,3.88184516 L4.9808218,3.88184516 L4.83834776,3.75256133 L4.78340909,3.69762243 C4.62994415,3.54398667 4.42169848,3.45766062 4.20454545,3.45766062 C3.98739243,3.45766062 3.77914676,3.54398667 3.62489516,3.69840909 C3.4712594,3.85187403 3.38493335,4.06011971 3.38493335,4.27727273 C3.38493335,4.49442575 3.4712594,4.70267143 3.6252886,4.85652958 L3.6252886,4.85652958 L3.68758986,4.91891686 C4.40223513,5.64950282 4.600236,6.74150766 4.21126338,7.61790836 L4.21126338,7.61790836 L4.14307629,7.78459946 C3.74969063,8.65553217 2.88789733,9.23169501 1.9,9.25454545 L1.9,9.25454545 L1.81818182,9.25454545 C1.36631248,9.25454545 1,9.62085793 1,10.0727273 C1,10.5245966 1.36631248,10.8909091 1.81818182,10.8909091 L1.81818182,10.8909091 L1.97671558,10.890917 C2.97314425,10.8948911 3.87206667,11.490204 4.26031713,12.3962347 C4.67296328,13.3312196 4.4749624,14.4232245 3.75256133,15.1616522 L3.75256133,15.1616522 L3.69762243,15.2165909 C3.54398667,15.3700558 3.45766062,15.5783015 3.45766062,15.7954545 C3.45766062,16.0126076 3.54398667,16.2208532 3.69840909,16.3751048 C3.85187403,16.5287406 4.06011971,16.6150666 4.27727273,16.6150666 C4.49442575,16.6150666 4.70267143,16.5287406 4.85652958,16.3747114 L4.85652958,16.3747114 L4.91891686,16.3124101 C5.64950282,15.5977649 6.74150766,15.399764 7.61790836,15.7887366 L7.61790836,15.7887366 L7.78459946,15.8569237 C8.65553217,16.2503094 9.23169501,17.1121027 9.25454545,18.1 L9.25454545,18.1 L9.25454545,18.1818182 C9.25454545,18.6336875 9.62085793,19 10.0727273,19 C10.5245966,19 10.8909091,18.6336875 10.8909091,18.1818182 L10.8909091,18.1818182 L10.890917,18.0232844 C10.8948911,17.0268557 11.490204,16.1279333 12.3962347,15.7396829 C13.3312196,15.3270367 14.4232245,15.5250376 15.1616522,16.2474387 L15.1616522,16.2474387 L15.2165909,16.3023776 C15.3700558,16.4560133 15.5783015,16.5423394 15.7954545,16.5423394 C16.0126076,16.5423394 16.2208532,16.4560133 16.3751048,16.3015909 C16.5287406,16.148126 16.6150666,15.9398803 16.6150666,15.7227273 C16.6150666,15.5055743 16.5287406,15.2973286 16.3747114,15.1434704 L16.3747114,15.1434704 L16.3124101,15.0810831 C15.5977649,14.3504972 15.399764,13.2584923 15.8081329,12.3333413 C16.2006606,11.4174767 17.099583,10.8221639 18.1,10.8181818 L18.1,10.8181818 L18.1818182,10.8181818 C18.6336875,10.8181818 19,10.4518693 19,10 C19,9.54813066 18.6336875,9.18181818 18.1818182,9.18181818 L18.1818182,9.18181818 L18.0232844,9.18181023 C17.0268557,9.17783613 16.1279333,8.58252327 15.7354056,7.66665871 C15.682055,7.54217848 15.6545455,7.4081585 15.6545455,7.27272727 L15.6545455,7.27272727 L15.6133962,7.24678294 C15.3847307,6.40130382 15.6153377,5.48447207 16.2474387,4.83834776 L16.2474387,4.83834776 L16.3023776,4.78340909 C16.4560133,4.62994415 16.5423394,4.42169848 16.5423394,4.20454545 C16.5423394,3.98739243 16.4560133,3.77914676 16.3015909,3.62489516 C16.148126,3.4712594 15.9398803,3.38493335 15.7227273,3.38493335 C15.5055743,3.38493335 15.2973286,3.4712594 15.1434704,3.6252886 L15.1434704,3.6252886 L15.0810831,3.68758986 C14.3504972,4.40223513 13.2584923,4.600236 12.3333413,4.1918671 C11.4174767,3.7993394 10.8221639,2.90041698 10.8181818,1.9 L10.8181818,1.9 L10.8181818,1.81818182 C10.8181818,1.36631248 10.4518693,1 10,1 Z M10,6.27272727 C12.0585159,6.27272727 13.7272727,7.94148411 13.7272727,10 C13.7272727,12.0585159 12.0585159,13.7272727 10,13.7272727 C7.94148411,13.7272727 6.27272727,12.0585159 6.27272727,10 C6.27272727,7.94148411 7.94148411,6.27272727 10,6.27272727 Z M10,8.27272727 C9.04605361,8.27272727 8.27272727,9.04605361 8.27272727,10 C8.27272727,10.9539464 9.04605361,11.7272727 10,11.7272727 C10.9539464,11.7272727 11.7272727,10.9539464 11.7272727,10 C11.7272727,9.04605361 10.9539464,8.27272727 10,8.27272727 Z" id="Combined-Shape"></path>
        </g>
    </g>
</svg>