<?xml version="1.0" encoding="UTF-8"?>
<svg width="24px" height="24px" viewBox="0 0 24 24" version="1.1" xmlns="http://www.w3.org/2000/svg" xmlns:xlink="http://www.w3.org/1999/xlink">
    <title>icons/link</title>
    <g id="icons/link" stroke="none" stroke-width="1" fill="none" fill-rule="evenodd">
        <g id="link-2" transform="translate(1.000000, 6.000000)" fill="#000000" fill-rule="nonzero">
            <path d="M16.4545455,0 C17.9252914,0 19.3357995,0.584251569 20.375774,1.62422603 C21.4157484,2.66420049 22,4.07470856 22,5.54545455 C22,8.53520381 19.6340358,10.9723525 16.6722957,11.0867124 L16.4545455,11.0909091 L13.7272727,11.0909091 C13.174988,11.0909091 12.7272727,10.6431938 12.7272727,10.0909091 C12.7272727,9.57807325 13.1133129,9.15540193 13.6106516,9.09763682 L13.7272727,9.09090909 L16.4545455,9.09090909 C18.4126459,9.09090909 20,7.50355502 20,5.54545455 C20,4.60514154 19.6264621,3.7033413 18.9615604,3.03843959 C18.347805,2.42468417 17.5321952,2.05919141 16.6707668,2.00659345 L16.4545455,2 L13.7272727,2 C13.174988,2 12.7272727,1.55228475 12.7272727,1 C12.7272727,0.487164161 13.1133129,0.0644928393 13.6106516,0.00672773133 L13.7272727,0 L16.4545455,0 Z M8.27272727,1.77635684e-15 C8.82501202,1.77635684e-15 9.27272727,0.44771525 9.27272727,1 C9.27272727,1.51283584 8.88668708,1.93550716 8.3893484,1.99327227 L8.27272727,2 L5.54545455,2 C3.58735407,2 2,3.58735407 2,5.54545455 C2,6.48576755 2.37353789,7.38756779 3.03843959,8.0524695 C3.65219501,8.66622492 4.4678048,9.03171768 5.32923319,9.08431564 L5.54545455,9.09090909 L8.27272727,9.09090909 C8.82501202,9.09090909 9.27272727,9.53862434 9.27272727,10.0909091 C9.27272727,10.6037449 8.88668708,11.0264163 8.3893484,11.0841814 L8.27272727,11.0909091 L5.54545455,11.0909091 C4.07470856,11.0909091 2.66420049,10.5066575 1.62422603,9.46668306 C0.584251569,8.4267086 0,7.01620053 0,5.54545455 C0,2.55570528 2.36596421,0.11855657 5.32770429,0.00419673843 L5.54545455,1.77635684e-15 L8.27272727,1.77635684e-15 Z M14.6363636,4.54545455 C15.1886484,4.54545455 15.6363636,4.9931698 15.6363636,5.54545455 C15.6363636,6.05829038 15.2503234,6.48096171 14.7529848,6.53872681 L14.6363636,6.54545455 L7.36363636,6.54545455 C6.81135161,6.54545455 6.36363636,6.0977393 6.36363636,5.54545455 C6.36363636,5.03261871 6.74967655,4.60994738 7.24701524,4.55218228 L7.36363636,4.54545455 L14.6363636,4.54545455 Z" id="Combined-Shape"></path>
        </g>
    </g>
</svg>