<?xml version="1.0" encoding="UTF-8"?>
<svg width="24px" height="24px" viewBox="0 0 24 24" version="1.1" xmlns="http://www.w3.org/2000/svg" xmlns:xlink="http://www.w3.org/1999/xlink">
    <title>icons/lock</title>
    <g id="icons/lock" stroke="none" stroke-width="1" fill="none" fill-rule="evenodd">
        <g id="lock" transform="translate(3.000000, 2.000000)" fill="#000000" fill-rule="nonzero">
            <path d="M9,-1 C12.2383969,-1 14.8775718,1.56557489 14.9958615,4.77506174 L15,5 L15,8 L16,8 C17.5976809,8 18.9036609,9.24891996 18.9949073,10.8237272 L19,11 L19,18 C19,19.6568542 17.6568542,21 16,21 L16,21 L2,21 C0.343145751,21 -1,19.6568542 -1,18 L-1,18 L-1,11 C-1,9.34314575 0.343145751,8 2,8 L2,8 L3,8 L3,5 C3,1.6862915 5.6862915,-1 9,-1 Z M16,10 L2,10 C1.44771525,10 1,10.4477153 1,11 L1,11 L1,18 C1,18.5522847 1.44771525,19 2,19 L2,19 L16,19 C16.5522847,19 17,18.5522847 17,18 L17,18 L17,11 C17,10.4477153 16.5522847,10 16,10 L16,10 Z M9,1 C6.85780461,1 5.10892112,2.68396847 5.00489531,4.80035966 L5,5 L5,8 L13,8 L13,5 C13,2.790861 11.209139,1 9,1 Z" id="Combined-Shape"></path>
        </g>
    </g>
</svg>