<?xml version="1.0" encoding="UTF-8"?>
<svg width="24px" height="24px" viewBox="0 0 24 24" version="1.1" xmlns="http://www.w3.org/2000/svg" xmlns:xlink="http://www.w3.org/1999/xlink">
    <title>icons/logout</title>
    <g id="icons/logout" stroke="none" stroke-width="1" fill="none" fill-rule="evenodd">
        <g id="log-out" transform="translate(3.000000, 3.000000)" fill="#000000" fill-rule="nonzero">
            <path d="M6,-1 C6.55228475,-1 7,-0.55228475 7,0 C7,0.512835839 6.61395981,0.935507161 6.11662113,0.993272269 L6,1 L2,1 C1.48716416,1 1.06449284,1.38604019 1.00672773,1.88337887 L1,2 L1,16 C1,16.5128358 1.38604019,16.9355072 1.88337887,16.9932723 L2,17 L6,17 C6.55228475,17 7,17.4477153 7,18 C7,18.5128358 6.61395981,18.9355072 6.11662113,18.9932723 L6,19 L2,19 C0.402319117,19 -0.903660879,17.75108 -0.994907307,16.1762728 L-1,16 L-1,2 C-1,0.402319117 0.248919964,-0.903660879 1.82372721,-0.994907307 L2,-1 L6,-1 Z M13.6128994,3.20970461 L13.7071068,3.29289322 L18.7071068,8.29289322 C18.7355731,8.32135953 18.7623312,8.35153408 18.787214,8.38324992 L18.7071068,8.29289322 C18.7425008,8.32828727 18.774687,8.36567442 18.8036654,8.40469339 C18.8215099,8.42886931 18.8382813,8.45372505 18.8539326,8.47933981 C18.8613931,8.49138689 18.8685012,8.50360556 18.8753288,8.5159379 C18.8862061,8.53570605 18.8966234,8.5561086 18.9063462,8.57690085 C18.914321,8.5939015 18.9218036,8.61120435 18.9287745,8.62866398 C18.9366843,8.6484208 18.9438775,8.66820232 18.9504533,8.68826359 C18.9552713,8.70314866 18.9599023,8.71853672 18.9641549,8.73400703 C18.9701664,8.75556352 18.9753602,8.77725392 18.9798348,8.7992059 C18.9832978,8.81662474 18.9863719,8.83405099 18.9889822,8.85153313 C18.9920328,8.87147534 18.9944666,8.89211395 18.9962623,8.91293499 C18.9978436,8.93173451 18.9989053,8.94973363 18.9994829,8.96774538 C18.9998183,8.97778921 19,8.98887338 19,9 L18.9994506,9.03324678 C18.9988772,9.05059097 18.997855,9.06792309 18.996384,9.08522423 L19,9 C19,9.05062028 18.9962388,9.10036209 18.9889807,9.14896122 C18.9863719,9.16594901 18.9832978,9.18337526 18.9797599,9.20072576 C18.9753602,9.22274608 18.9701664,9.24443648 18.964279,9.26583961 C18.9599023,9.28146328 18.9552713,9.29685134 18.9502619,9.31214252 C18.9438775,9.33179768 18.9366843,9.3515792 18.928896,9.37105852 C18.9218036,9.38879565 18.914321,9.4060985 18.9063266,9.42322155 C18.8966234,9.4438914 18.8862061,9.46429395 18.8751242,9.48427695 C18.8685012,9.49639444 18.8613931,9.50861311 18.8540045,9.52070875 C18.8382813,9.54627495 18.8215099,9.57113069 18.8036865,9.5951593 C18.7992821,9.60120864 18.7948255,9.60707334 18.7902954,9.61289944 C18.7849289,9.61966276 18.7826279,9.62256244 18.7803112,9.62544899 L18.7071068,9.70710678 L13.7071068,14.7071068 C13.3165825,15.0976311 12.6834175,15.0976311 12.2928932,14.7071068 C11.9324093,14.3466228 11.9046797,13.7793918 12.2097046,13.3871006 L12.2928932,13.2928932 L15.585,10 L6,10 C5.44771525,10 5,9.55228475 5,9 C5,8.48716416 5.38604019,8.06449284 5.88337887,8.00672773 L6,8 L15.585,8 L12.2928932,4.70710678 C11.9324093,4.34662282 11.9046797,3.77939176 12.2097046,3.38710056 L12.2928932,3.29289322 C12.6533772,2.93240926 13.2206082,2.90467972 13.6128994,3.20970461 Z" id="Combined-Shape"></path>
        </g>
    </g>
</svg>