<?xml version="1.0" encoding="UTF-8"?>
<svg width="24px" height="24px" viewBox="0 0 24 24" version="1.1" xmlns="http://www.w3.org/2000/svg" xmlns:xlink="http://www.w3.org/1999/xlink">
    <title>icons/loyalty</title>
    <g id="icons/loyalty" stroke="none" stroke-width="1" fill="none" fill-rule="evenodd">
        <path d="M12.4961389,5.14732129 C12.6511702,5.2359106 12.7796538,5.36439422 12.8682431,5.5194255 L15.5038611,10.1317569 C15.777871,10.6112743 16.3887257,10.777871 16.8682431,10.5038611 L21.0572155,8.11016259 C21.5367329,7.83615262 22.1475876,8.00274934 22.4215976,8.48226679 C22.5437241,8.69598819 22.5827332,8.94724498 22.5311568,9.18793482 L20.1693866,20.2095291 C20.0705857,20.6705999 19.663122,21 19.1915842,21 L4.80841579,21 C4.33687801,21 3.92941426,20.6705999 3.83061338,20.2095291 L1.46884318,9.18793482 C1.35312345,8.64790946 1.69709114,8.11632304 2.2371165,8.00060332 C2.47780634,7.94902692 2.72906313,7.98803607 2.94278453,8.11016259 L7.13175686,10.5038611 C7.6112743,10.777871 8.22212897,10.6112743 8.49613894,10.1317569 L11.1317569,5.5194255 C11.4057668,5.03990805 12.0166215,4.87331133 12.4961389,5.14732129 Z M16.6413022,2.45714061 C16.9010362,2.09971923 17.4013324,2.02054747 17.7587069,2.28023461 C18.1161283,2.53987487 18.1953469,3.04021793 17.9356598,3.39763931 L17.9356598,3.39763931 L16.9788955,4.71444999 C16.7193021,5.07173074 16.2190528,5.15113688 15.8614908,4.89135599 C15.5040694,4.63171573 15.4248039,4.13137267 15.6845379,3.77395129 L15.6845379,3.77395129 Z M5.79452935,2.3316164 C6.13783005,2.0535737 6.64163975,2.10650741 6.91965818,2.44989866 L6.91965818,2.44989866 L7.9439708,3.71487769 C8.22198923,4.05826894 8.1689771,4.5620091 7.82564326,4.83999439 C7.48234256,5.11803709 6.97854499,5.0650581 6.70051443,4.72171213 L6.70051443,4.72171213 L5.67620181,3.4567331 C5.39828281,3.11351408 5.45105642,2.60975853 5.79452935,2.3316164 Z M11.999,8.031 L10.2326252,11.1240347 C9.44104087,12.5093074 7.71239061,13.024068 6.30086822,12.3262639 L6.13947898,12.2403473 L3.893,10.956 L5.617,19 L18.382,19 L20.106,10.956 L17.860521,12.2403473 C16.4752484,13.0319317 14.7246097,12.5977954 13.8627987,11.2799912 L13.7673748,11.1240347 L11.999,8.031 Z" id="Rectangle" fill="#000000" fill-rule="nonzero"></path>
    </g>
</svg>