<?xml version="1.0" encoding="UTF-8"?>
<svg width="24px" height="24px" viewBox="0 0 24 24" version="1.1" xmlns="http://www.w3.org/2000/svg" xmlns:xlink="http://www.w3.org/1999/xlink">
    <title>icons/mask</title>
    <g id="icons/mask" stroke="none" stroke-width="1" fill="none" fill-rule="evenodd">
        <g id="fi-rr-eye-crossed" transform="translate(0.000000, 1.014120)" fill="#000000" fill-rule="nonzero">
            <path d="M23.2668259,8.40059976 C22.364404,6.92287298 21.2260924,5.60289086 19.8970743,4.49304743 L22.6960373,1.69408439 C23.0748692,1.30185082 23.0694514,0.678375918 22.6838604,0.292784974 C22.2982695,-0.0928059703 21.6747946,-0.0982237987 21.282561,0.280608061 L18.2386887,3.32847888 C16.3517793,2.20771553 14.1946062,1.62357476 12,1.63910476 C5.8112928,1.63910476 2.28459937,5.87553525 0.733174145,8.40059976 C-0.244391382,9.98173122 -0.244391382,11.9795566 0.733174145,13.560688 C1.63559604,15.0384148 2.77390755,16.3583969 4.10292572,17.4682404 L1.30396268,20.2672034 C1.04410237,20.5181849 0.939884966,20.8898506 1.03136651,21.2393506 C1.12284806,21.5888505 1.3957919,21.8617944 1.74529185,21.9532759 C2.0947918,22.0447575 2.46645753,21.9405401 2.71743901,21.6806797 L5.76830872,18.62981 C7.65287806,19.7503933 9.80748311,20.3355307 12,20.322183 C18.1887072,20.322183 21.7154006,16.0857526 23.2668259,13.560688 C24.2443914,11.9795566 24.2443914,9.98173122 23.2668259,8.40059976 Z M2.43654308,12.5140758 C1.85575904,11.5742769 1.85575904,10.3870109 2.43654308,9.44721201 C3.77004904,7.28201417 6.78393245,3.63836408 12,3.63836408 C13.6596585,3.62906604 15.2960153,4.02905677 16.7642349,4.80293263 L14.7519804,6.81518712 C12.7732421,5.50148318 10.14278,5.76448851 8.46331233,7.44395623 C6.78384461,9.12342395 6.52083928,11.753886 7.83454322,13.7326243 L5.52539872,16.0417688 C4.30095577,15.051855 3.25607695,13.8585289 2.43654308,12.5140758 Z M14.998889,10.9806439 C14.998889,12.6368845 13.6562406,13.9795329 12,13.9795329 C11.5546782,13.9778088 11.1155258,13.8752829 10.7154759,13.679644 L14.6990001,9.69611979 C14.894639,10.0961697 14.9971649,10.5353221 14.998889,10.9806439 L14.998889,10.9806439 Z M9.00111103,10.9806439 C9.00111103,9.32440326 10.3437594,7.98175493 12,7.98175493 C12.4453218,7.98347901 12.8844742,8.08600486 13.2845241,8.28164383 L9.30099993,12.265168 C9.10536096,11.8651181 9.00283511,11.4259657 9.00111103,10.9806439 L9.00111103,10.9806439 Z M21.5634569,12.5140758 C20.229951,14.6792736 17.2160675,18.3229237 12,18.3229237 C10.3403415,18.3322218 8.70398465,17.932231 7.23576506,17.1583552 L9.24801956,15.1461007 C11.2267579,16.4598046 13.85722,16.1967993 15.5366877,14.5173316 C17.2161554,12.8378639 17.4791607,10.2074018 16.1654568,8.22866346 L18.4746013,5.91951895 C19.6990442,6.90943285 20.743923,8.10275885 21.5634569,9.44721201 C22.144241,10.3870109 22.144241,11.5742769 21.5634569,12.5140758 L21.5634569,12.5140758 Z" id="Shape"></path>
        </g>
    </g>
</svg>