<?xml version="1.0" encoding="UTF-8"?>
<svg width="24px" height="24px" viewBox="0 0 24 24" version="1.1" xmlns="http://www.w3.org/2000/svg" xmlns:xlink="http://www.w3.org/1999/xlink">
    <title>icons/nintendo</title>
    <g id="icons/nintendo" stroke="none" stroke-width="1" fill="none" fill-rule="evenodd">
        <path d="M11.3554688,1 L11.3554688,23 L5.94140625,23 C3.21671484,23 1,20.7832852 1,18.0585938 L1,18.0585938 L1,5.94140625 C1,3.21671484 3.21671484,1 5.94140625,1 L5.94140625,1 L11.3554688,1 Z M10.0664062,2.2890625 L5.94140625,2.2890625 C3.92750391,2.2890625 2.2890625,3.92750391 2.2890625,5.94140625 L2.2890625,5.94140625 L2.2890625,18.0585938 C2.2890625,20.0724961 3.92750391,21.7109375 5.94140625,21.7109375 L5.94140625,21.7109375 L10.0664062,21.7109375 L10.0664062,2.2890625 Z M6.17773438,4.8671875 C7.61112891,4.8671875 8.77734375,6.03340234 8.77734375,7.46679688 C8.77734375,8.90019141 7.61112891,10.0664062 6.17773438,10.0664062 C4.74433984,10.0664062 3.578125,8.90019141 3.578125,7.46679688 C3.578125,6.03340234 4.74433984,4.8671875 6.17773438,4.8671875 Z M18.0585938,1 C20.7832852,1 23,3.21671484 23,5.94140625 L23,5.94140625 L23,18.0585938 C23,20.7832852 20.7832852,23 18.0585938,23 L18.0585938,23 L12.6445312,23 L12.6445312,1 Z M17.8222656,10.0664062 C16.3888711,10.0664062 15.2226562,11.2326211 15.2226562,12.6660156 C15.2226562,14.0994102 16.3888711,15.265625 17.8222656,15.265625 C19.2556602,15.265625 20.421875,14.0994102 20.421875,12.6660156 C20.421875,11.2326211 19.2556602,10.0664062 17.8222656,10.0664062 Z" id="Combined-Shape" fill="#ffffff" fill-rule="nonzero"></path>
    </g>
</svg>