<?xml version="1.0" encoding="UTF-8"?>
<svg width="24px" height="24px" viewBox="0 0 24 24" version="1.1" xmlns="http://www.w3.org/2000/svg" xmlns:xlink="http://www.w3.org/1999/xlink">
    <title>icons/orders</title>
    <g id="icons/orders" stroke="none" stroke-width="1" fill="none" fill-rule="evenodd">
        <g id="file" transform="translate(3.000000, 1.000000)" fill="#000000" fill-rule="nonzero">
            <path d="M10,0 C10.0425909,0 10.0845598,0.00266261633 10.1257495,0.00783047292 C10.1359475,0.00922376382 10.1463778,0.0107110343 10.1567725,0.0123609877 C10.1883933,0.0172035954 10.2193064,0.0236158178 10.249662,0.0314174347 C10.2598053,0.0342797004 10.2698902,0.0370498784 10.2799252,0.0399762024 C10.3109399,0.0487322365 10.3413507,0.059226165 10.3710585,0.0711039637 C10.3800191,0.0749695695 10.3890567,0.0787341995 10.3980377,0.0826308894 C10.4262995,0.0946381533 10.4536613,0.108067907 10.4802859,0.122674361 C10.4906553,0.128558233 10.5012587,0.134613306 10.5117542,0.140864684 C10.5399066,0.15749759 10.5670269,0.175549461 10.5931738,0.194844517 C10.6329776,0.224207122 10.6712627,0.25704911 10.7071068,0.292893219 L10.6138331,0.210506079 C10.6177282,0.213538884 10.6216003,0.216599882 10.625449,0.219688767 L10.7071068,0.292893219 L17.7071068,7.29289322 C17.7364445,7.32223095 17.7639678,7.3533831 17.7894939,7.38616693 C17.7951656,7.39353973 17.8003651,7.40041834 17.8054709,7.40735764 C17.8244505,7.43297305 17.8425024,7.46009338 17.8592238,7.48809993 C17.8653867,7.49874131 17.8714418,7.50934473 17.8772982,7.52005033 C17.8919321,7.54633874 17.9053618,7.57370048 17.9175449,7.60172936 C17.9212658,7.61094326 17.9250304,7.61998091 17.9286618,7.62907226 C17.9407738,7.65864932 17.9512678,7.68906007 17.9602981,7.72009403 C17.9629501,7.73010978 17.9657203,7.7401947 17.9683328,7.75032594 C17.9763842,7.78069364 17.9827964,7.81160666 17.9877474,7.84300527 C17.9958186,7.89475892 18,7.9471639 18,8 L17.9921695,7.87425046 C17.9925508,7.87728905 17.9929184,7.88033187 17.9932723,7.88337887 L18,8 L18,19 C18,20.6568542 16.6568542,22 15,22 L15,22 L3,22 C1.34314575,22 0,20.6568542 0,19 L0,19 L0,3 C0,1.34314575 1.34314575,0 3,0 L3,0 L10,0 L10,0 Z M9,2 L3,2 C2.44771525,2 2,2.44771525 2,3 L2,3 L2,19 C2,19.5522847 2.44771525,20 3,20 L3,20 L15,20 C15.5522847,20 16,19.5522847 16,19 L16,19 L16,9 L10,9 C9.48716416,9 9.06449284,8.61395981 9.00672773,8.11662113 L9,8 L9,2 Z M12,14 C12.5522847,14 13,14.4477153 13,15 C13,15.5128358 12.6139598,15.9355072 12.1166211,15.9932723 L12,16 L6,16 C5.44771525,16 5,15.5522847 5,15 C5,14.4871642 5.38604019,14.0644928 5.88337887,14.0067277 L6,14 L12,14 Z M11,3.415 L11,7 L14.585,7 L11,3.415 Z" id="Combined-Shape"></path>
        </g>
    </g>
</svg>