<?xml version="1.0" encoding="UTF-8"?>
<svg width="24px" height="24px" viewBox="0 0 24 24" version="1.1" xmlns="http://www.w3.org/2000/svg" xmlns:xlink="http://www.w3.org/1999/xlink">
    <title>icons/PC</title>
    <g id="icons/PC" stroke="none" stroke-width="1" fill="none" fill-rule="evenodd">
        <path d="M20.1860465,4 C21.7401674,4 23,5.25985302 23,6.81395349 L23,16.0465116 C23,17.6006326 21.7401674,18.8604651 20.1860465,18.8604651 L14.2649767,18.8604651 L15.0324186,20.3953488 L17.1162791,20.3953488 C17.5401116,20.3953488 17.8837209,20.7389581 17.8837209,21.1627907 C17.8837209,21.5866233 17.5401116,21.9302326 17.1162791,21.9302326 L6.88372093,21.9302326 C6.45987814,21.9302326 6.11627907,21.5866233 6.11627907,21.1627907 C6.11627907,20.7389581 6.45987814,20.3953488 6.88372093,20.3953488 L8.9675507,20.3953488 L9.73499256,18.8604651 L3.81395349,18.8604651 C2.25985302,18.8604651 1,17.6006326 1,16.0465116 L1,6.81395349 C1,5.25985302 2.25985302,4 3.81395349,4 L20.1860465,4 Z M20.1860465,5.53488372 L3.81395349,5.53488372 C3.1075386,5.53488372 2.53488372,6.1075386 2.53488372,6.81395349 L2.53488372,6.81395349 L2.53488372,16.0465116 C2.53488372,16.7529674 3.1075386,17.3255814 3.81395349,17.3255814 L3.81395349,17.3255814 L20.1860465,17.3255814 C20.8925023,17.3255814 21.4651163,16.7529674 21.4651163,16.0465116 L21.4651163,16.0465116 L21.4651163,6.81395349 C21.4651163,6.1075386 20.8925023,5.53488372 20.1860465,5.53488372 L20.1860465,5.53488372 Z" id="Shape" fill="#000000" fill-rule="nonzero"></path>
    </g>
</svg>