<?xml version="1.0" encoding="UTF-8"?>
<svg width="24px" height="24px" viewBox="0 0 24 24" version="1.1" xmlns="http://www.w3.org/2000/svg" xmlns:xlink="http://www.w3.org/1999/xlink">
    <title>icons/plus</title>
    <g id="icons/plus" stroke="none" stroke-width="1" fill="none" fill-rule="evenodd">
        <path d="M11.5,3.5 C12.0128358,3.5 12.4355072,3.88604019 12.4932723,4.38337887 L12.5,4.5 L12.5,11.5 L19.5,11.5 C20.0522847,11.5 20.5,11.9477153 20.5,12.5 C20.5,13.0128358 20.1139598,13.4355072 19.6166211,13.4932723 L19.5,13.5 L12.5,13.5 L12.5,20.5 C12.5,21.0522847 12.0522847,21.5 11.5,21.5 C10.9871642,21.5 10.5644928,21.1139598 10.5067277,20.6166211 L10.5,20.5 L10.5,13.5 L3.5,13.5 C2.94771525,13.5 2.5,13.0522847 2.5,12.5 C2.5,11.9871642 2.88604019,11.5644928 3.38337887,11.5067277 L3.5,11.5 L10.5,11.5 L10.5,4.5 C10.5,3.94771525 10.9477153,3.5 11.5,3.5 Z" id="Combined-Shape" fill="#000000" fill-rule="nonzero"></path>
    </g>
</svg>