<?xml version="1.0" encoding="UTF-8"?>
<svg width="24px" height="24px" viewBox="0 0 24 24" version="1.1" xmlns="http://www.w3.org/2000/svg" xmlns:xlink="http://www.w3.org/1999/xlink">
    <title>icons/pound</title>
    <g id="icons/pound" stroke="none" stroke-width="1" fill="none" fill-rule="evenodd">
        <g id="£" transform="translate(6.000000, 4.000000)" fill="#000000" fill-rule="nonzero">
            <path d="M11.352,13.86 L11.352,15.906 L1.166,15.906 L0.726,14.542 C1.342,13.882 1.79666667,13.2256667 2.09,12.573 C2.38333333,11.9203333 2.53,11.11 2.53,10.142 C2.53,9.84866667 2.49333333,9.54066667 2.42,9.218 L0,9.218 L0,7.48 L1.87,7.48 C1.562,6.556 1.408,5.66133333 1.408,4.796 C1.408,3.81333333 1.62066667,2.96266667 2.046,2.244 C2.47133333,1.52533333 3.058,0.971666667 3.806,0.583 C4.554,0.194333333 5.41933333,0 6.402,0 C7.97133333,0 9.15933333,0.44 9.966,1.32 C10.7726667,2.2 11.1906667,3.322 11.22,4.686 L8.932,4.686 C8.932,3.894 8.72666667,3.267 8.316,2.805 C7.90533333,2.343 7.26733333,2.112 6.402,2.112 C5.61,2.112 4.97566667,2.33933333 4.499,2.794 C4.02233333,3.24866667 3.784,3.96 3.784,4.928 C3.784,5.35333333 3.828,5.764 3.916,6.16 C4.004,6.556 4.12866667,6.996 4.29,7.48 L8.558,7.48 L8.558,9.218 L4.796,9.218 C4.86933333,9.55533333 4.906,9.87066667 4.906,10.164 C4.906,11.5866667 4.41466667,12.8186667 3.432,13.86 L11.352,13.86 Z" id="Path"></path>
        </g>
    </g>
</svg>