<?xml version="1.0" encoding="UTF-8"?>
<svg width="24px" height="24px" viewBox="0 0 24 24" version="1.1" xmlns="http://www.w3.org/2000/svg" xmlns:xlink="http://www.w3.org/1999/xlink">
    <title>icons/prices</title>
    <g id="icons/prices" stroke="none" stroke-width="1" fill="none" fill-rule="evenodd">
        <g id="hot-sale" transform="translate(2.000000, 0.000000)" fill="#000000" fill-rule="nonzero">
            <path d="M11.5802737,0 L11.7918198,0.799784184 C11.7936027,0.806540149 12.0264958,1.65549274 12.7371857,3.02456075 C13.3934056,4.28853597 14.6026763,6.26695442 16.6375352,8.51439161 C18.2788123,10.3271482 19.2200964,12.468695 19.2200964,14.3899693 C19.2200964,19.6889441 14.9090874,24 9.61011255,24 C7.04997743,24 4.64386891,23.0114711 2.8350064,21.2164958 C1.02605006,19.4213798 0.019317552,17.0229656 0.000269486135,14.4629712 C-0.0139461886,12.5462009 0.534506742,10.6914542 1.58632593,9.09925168 C1.8017192,8.77322949 2.98485744,7.14152338 3.03510493,7.07222783 L3.03510493,7.07222783 L3.51923545,6.40465411 L4.92658725,7.81200591 C5.18387689,8.06929555 5.55057562,8.18011213 5.90704656,8.10889301 C6.41547979,8.00722513 6.78246001,7.55748434 6.77959811,7.03952708 C6.77467189,6.14952263 6.89210368,4.84200896 7.47926266,3.66764409 C8.64893589,1.32834455 10.736435,0.376363508 10.8247317,0.337000633 L10.8247317,0.337000633 L11.5802737,0 Z M10.7290222,2.02453729 C10.1437868,2.43402379 9.30159018,3.17037697 8.73821783,4.29707476 C8.27538736,5.22282953 8.18305585,6.2951981 8.18713758,7.03183279 C8.19365896,8.22214924 7.35085242,9.25553027 6.1831966,9.4890802 C5.36375444,9.65295925 4.52216772,9.39806235 3.93139618,8.80729081 L3.93139618,8.80729081 L3.69123104,8.56712567 C3.30975364,9.09620212 2.87028755,9.70930587 2.76073771,9.87510849 C1.86346121,11.2332919 1.39561069,12.816158 1.40780895,14.4525089 C1.42408895,16.6383917 2.28303474,18.6857773 3.82649107,20.2174107 C5.36990049,21.7490441 7.42390129,22.5925074 9.61015947,22.5925074 C14.132996,22.5925074 17.8126507,18.9128528 17.8126507,14.3900162 C17.8126507,12.151024 16.2612186,10.1958291 15.5942079,9.45914753 C12.6000959,6.15229069 11.2583332,3.37085083 10.7290222,2.02453729 Z M11.9781249,14.8946492 C12.9567076,14.8946492 13.6953128,15.5501185 13.6953128,16.694926 C13.6953128,17.8489291 12.9567545,18.4951559 11.9781249,18.4951559 C10.9994954,18.4951559 10.2609371,17.8489291 10.2609371,16.694926 C10.2609371,15.5501185 10.9995423,14.8946492 11.9781249,14.8946492 Z M12.596671,11.9403692 L8.18371268,18.4028244 L6.62350719,18.4028244 L11.0364655,11.9403692 L12.596671,11.9403692 Z M11.9781249,15.89167 C11.7750238,15.89167 11.5719226,16.076333 11.5719226,16.6948791 C11.5719226,17.3134251 11.7750238,17.4980882 11.9781249,17.4980882 C12.1812261,17.4980882 12.3843273,17.3134251 12.3843273,16.6948791 C12.3843273,16.076333 12.1812261,15.89167 11.9781249,15.89167 Z M7.24205325,11.8480846 C8.22068282,11.8480846 8.95924108,12.5035539 8.95924108,13.6483145 C8.95924108,14.8023177 8.22068282,15.4485913 7.24205325,15.4485913 C6.26342368,15.4485913 5.52486542,14.8023177 5.52486542,13.6483145 C5.52486542,12.5035539 6.26342368,11.8480846 7.24205325,11.8480846 Z M7.24205325,12.8451054 C7.03895207,12.8451054 6.8358509,13.0297685 6.8358509,13.6483145 C6.8358509,14.2668606 7.03895207,14.4515236 7.24205325,14.4515236 C7.44515442,14.4515236 7.6482556,14.2668606 7.6482556,13.6483145 C7.6482556,13.0297685 7.44515442,12.8451054 7.24205325,12.8451054 Z" id="Combined-Shape"></path>
        </g>
    </g>
</svg>