<?xml version="1.0" encoding="UTF-8"?>
<svg width="24px" height="24px" viewBox="0 0 24 24" version="1.1" xmlns="http://www.w3.org/2000/svg" xmlns:xlink="http://www.w3.org/1999/xlink">
    <title>icons/PST</title>
    <g id="icons/PST" stroke="none" stroke-width="1" fill="none" fill-rule="evenodd">
        <path d="M7.42044155,1 L15.6784767,3.28494922 C17.6015431,3.825625 18.9428126,5.59744141 18.9428126,7.59432812 C18.9428126,7.63291406 18.94234,7.67132812 18.9413517,7.70965625 C18.8906486,9.70271875 17.5306017,11.3760937 15.6911955,11.899668 C15.6558322,11.9097656 15.620254,11.9194336 15.584547,11.9286289 C15.513133,11.9470625 15.4409884,11.9637773 15.3682423,11.9786875 C15.2591017,12.0011172 15.1485431,12.0195508 15.0366525,12.0337734 C14.9621017,12.0433125 14.8869494,12.0509609 14.8112814,12.0567187 C14.6978009,12.0653984 14.5831173,12.0698242 14.4674455,12.0698242 L14.4674455,12.0698242 L13.8280705,12.0698242 L13.8280705,7.09619141 C13.8280705,6.74367578 13.541254,6.45685937 13.1887384,6.45685937 C12.8362228,6.45685937 12.5494064,6.74367578 12.5494064,7.09619141 L12.5494064,7.09619141 L12.5494064,23 L7.42044155,21.5801836 L7.42044155,1 Z M18.7191173,12.5793477 C20.9812072,12.5793477 22.8216017,14.4196992 22.8216017,16.6817891 C22.8216017,17.5776445 22.537922,18.4288984 22.0011564,19.1435117 C21.4824376,19.8340195 20.7441486,20.3530391 19.9221134,20.6048359 L19.9221134,20.6048359 L19.9053986,20.6096914 L13.8281134,22.2920469 L13.8281134,18.6991289 L19.7624845,17.0563477 L19.4213126,15.8240039 L13.8281134,17.3723828 L13.8281134,13.7795078 L17.5248869,12.7560781 C17.9109181,12.6388164 18.3126759,12.5793477 18.7191173,12.5793477 Z M6.14177748,12.3143164 L4.10690639,12.8775937 C3.71563295,12.9755195 3.34055873,13.1310664 2.9919103,13.3401094 C1.05182827,14.5033594 0.419800922,17.0281602 1.58309389,18.9682422 C2.04380483,19.7366094 2.72490248,20.3208125 3.55269545,20.6576445 C4.04619155,20.8584375 4.57775795,20.9602735 5.10855092,20.9602735 C5.4381642,20.9602735 5.76756264,20.921 6.08720717,20.8417656 L6.14177748,20.8266836 L6.14177748,17.2340664 L4.39930873,17.7163906 L4.05813686,16.4840469 L6.14177748,15.9072773 L6.14177748,12.3143164 L6.14177748,12.3143164 Z" id="Combined-Shape" fill="#000000" fill-rule="nonzero"></path>
    </g>
</svg>