<?xml version="1.0" encoding="UTF-8"?>
<svg width="24px" height="24px" viewBox="0 0 24 24" version="1.1" xmlns="http://www.w3.org/2000/svg" xmlns:xlink="http://www.w3.org/1999/xlink">
    <title>icons/search</title>
    <g id="icons/search" stroke="none" stroke-width="1" fill="none" fill-rule="evenodd">
        <g id="search" fill="#000000" fill-rule="nonzero">
            <path d="M9.88307757,19.7661551 C4.4335205,19.7661551 0,15.3326346 0,9.88307757 C0,4.4335205 4.4335205,0 9.88307757,0 C15.3326346,0 19.7661551,4.4335205 19.7661551,9.88307757 C19.7661551,15.3326346 15.3326346,19.7661551 9.88307757,19.7661551 Z M9.88307757,1.87356921 C5.46660656,1.87356921 1.87356921,5.46660656 1.87356921,9.88307757 C1.87356921,14.2995486 5.46660656,17.8925859 9.88307757,17.8925859 C14.2995486,17.8925859 17.8925859,14.2995486 17.8925859,9.88307757 C17.8925859,5.46660656 14.2995486,1.87356921 9.88307757,1.87356921 Z M20.7073485,19.400815 L18.5152374,17.2087039 C18.1493762,16.8428427 17.5562041,16.8428427 17.1903898,17.2087039 C16.8245754,17.5745651 16.8245754,18.1677371 17.1903898,18.5335515 L19.3825009,20.7256626 C19.5654081,20.9085698 19.8051781,21 20.0449481,21 C20.2847181,21 20.5243945,20.9085698 20.7073485,20.7256626 C21.0731629,20.3598014 21.0731629,19.7666294 20.7073485,19.400815 Z" id="Shape"></path>
        </g>
    </g>
</svg>