<?xml version="1.0" encoding="UTF-8"?>
<svg width="24px" height="24px" viewBox="0 0 24 24" version="1.1" xmlns="http://www.w3.org/2000/svg" xmlns:xlink="http://www.w3.org/1999/xlink">
    <title>icons/secure payment</title>
    <g id="icons/secure-payment" stroke="none" stroke-width="1" fill="none" fill-rule="evenodd">
        <path d="M12,1 C15.2383969,1 17.8775718,3.56557489 17.9958615,6.77506174 L18,7 L18,10 L19,10 C20.5976809,10 21.9036609,11.24892 21.9949073,12.8237272 L22,13 L22,20 C22,21.6568542 20.6568542,23 19,23 L19,23 L5,23 C3.34314575,23 2,21.6568542 2,20 L2,20 L2,13 C2,11.3431458 3.34314575,10 5,10 L5,10 L6,10 L6,7 C6,3.6862915 8.6862915,1 12,1 Z M19,12 L5,12 C4.44771525,12 4,12.4477153 4,13 L4,13 L4,20 C4,20.5522847 4.44771525,21 5,21 L5,21 L19,21 C19.5522847,21 20,20.5522847 20,20 L20,20 L20,13 C20,12.4477153 19.5522847,12 19,12 L19,12 Z M12,3 C9.85780461,3 8.10892112,4.68396847 8.00489531,6.80035966 L8,7 L8,10 L16,10 L16,7 C16,4.790861 14.209139,3 12,3 Z" id="Combined-Shape" fill="#000000" fill-rule="nonzero"></path>
    </g>
</svg>