<?xml version="1.0" encoding="UTF-8"?>
<svg width="24px" height="24px" viewBox="0 0 24 24" version="1.1" xmlns="http://www.w3.org/2000/svg" xmlns:xlink="http://www.w3.org/1999/xlink">
    <title>icons/share</title>
    <g id="icons/share" stroke="none" stroke-width="1" fill="none" fill-rule="evenodd">
        <g id="share-2" transform="translate(3.000000, 2.000000)" fill="#000000" fill-rule="nonzero">
            <path d="M15,-1 C17.209139,-1 19,0.790861001 19,3 C19,5.209139 17.209139,7 15,7 C13.8888376,7 12.8834967,6.54692417 12.1586408,5.81543601 L6.8505935,8.91320982 C6.94792947,9.25877476 7,9.62330652 7,10 C7,10.3766935 6.94792947,10.7412252 6.8505935,11.0867902 L12.1616199,14.1815608 C12.88625,13.4518359 13.890359,13 15,13 C17.209139,13 19,14.790861 19,17 C19,19.209139 17.209139,21 15,21 C12.790861,21 11,19.209139 11,17 C11,16.6214972 11.0525719,16.2552733 11.1508122,15.9082318 L5.84135921,12.815436 C5.11650333,13.5469242 4.11116243,14 3,14 C0.790861001,14 -1,12.209139 -1,10 C-1,7.790861 0.790861001,6 3,6 C4.11116243,6 5.11650333,6.45307583 5.84135921,7.18456399 L11.1496871,4.08778599 C11.0521706,3.74192557 11,3.37705534 11,3 C11,0.790861001 12.790861,-1 15,-1 Z M15,15 C14.3045793,15 13.6920565,15.3549287 13.3336983,15.8935195 C13.3201306,15.9272941 13.303106,15.9607045 13.2840082,15.9934777 L13.2194793,16.0908521 L13.2194793,16.0908521 L13.185885,16.1568505 C13.0666023,16.4130633 13,16.6987538 13,17 C13,18.1045695 13.8954305,19 15,19 C16.1045695,19 17,18.1045695 17,17 C17,15.8954305 16.1045695,15 15,15 Z M3,8 C1.8954305,8 1,8.8954305 1,10 C1,11.1045695 1.8954305,12 3,12 C3.72904906,12 4.36698889,11.609915 4.71648645,11.0270779 C4.71843561,11.0196571 4.72217223,11.0130769 4.72599178,11.0065223 L4.75014799,10.9687351 C4.90934691,10.6817347 5,10.3514539 5,10 C5,9.64564149 4.90784232,9.31280756 4.74618687,9.02415811 C4.73877496,9.01494945 4.73246247,9.00456608 4.72631298,8.9940285 L4.71886896,8.9769058 C4.36989309,8.39186321 3.73070882,8 3,8 Z M15,1 C13.8954305,1 13,1.8954305 13,3 C13,3.35145393 13.0906531,3.6817347 13.249852,3.96873506 L13.273687,4.0059715 L13.281131,4.0230942 C13.6301069,4.60813679 14.2692912,5 15,5 C16.1045695,5 17,4.1045695 17,3 C17,1.8954305 16.1045695,1 15,1 Z" id="Combined-Shape"></path>
        </g>
    </g>
</svg>