<?xml version="1.0" encoding="UTF-8"?>
<svg width="24px" height="24px" viewBox="0 0 24 24" version="1.1" xmlns="http://www.w3.org/2000/svg" xmlns:xlink="http://www.w3.org/1999/xlink">
    <title>icons/valid</title>
    <g id="icons/valid" stroke="none" stroke-width="1" fill="none" fill-rule="evenodd">
        <path d="M9.74418363,16.4999776 L9.65673075,16.4942127 C9.65074552,16.4934668 9.64476755,16.4926489 9.63879826,16.4917588 C9.60591735,16.4868301 9.57387076,16.4798763 9.54230243,16.470811 C9.53640761,16.4691218 9.53013639,16.4672355 9.52388589,16.4652652 C9.49358933,16.4557015 9.46407312,16.4443028 9.43522923,16.4309737 C9.42817825,16.4277142 9.42126513,16.4243881 9.4143938,16.4209498 C9.39672185,16.4121143 9.37912144,16.4024135 9.36185198,16.3919533 C9.31103285,16.3611414 9.26332959,16.3239898 9.21966991,16.2803301 L9.30570913,16.3543687 C9.30506828,16.3538963 9.30442802,16.3534229 9.30378835,16.3529482 L9.21966991,16.2803301 L5.21966991,12.2803301 C4.9267767,11.9874369 4.9267767,11.5125631 5.21966991,11.2196699 C5.48593648,10.9534034 5.90260016,10.9291973 6.19621165,11.1470518 L6.28033009,11.2196699 L9.75,14.689 L17.2196699,7.21966991 L17.3037883,7.14705176 C17.5973998,6.9291973 18.0140635,6.95340335 18.2803301,7.21966991 C18.5732233,7.51256313 18.5732233,7.98743687 18.2803301,8.28033009 L18.2803301,8.28033009 L10.2803301,16.2803301 L10.1962117,16.3529482 C10.195572,16.3534229 10.1949317,16.3538963 10.1942909,16.3543687 L10.2803301,16.2803301 C10.2366704,16.3239898 10.1889671,16.3611414 10.1384258,16.3917849 C10.1208786,16.4024135 10.1032781,16.4121143 10.0853948,16.4210556 C10.0787349,16.4243881 10.0718217,16.4277142 10.0648695,16.4309281 C10.0359269,16.4443028 10.0064107,16.4557015 9.97641686,16.4651697 C9.96986361,16.4672355 9.96359239,16.4691218 9.95730224,16.4709244 C9.92612924,16.4798763 9.89408265,16.4868301 9.86178062,16.4916722 C9.85523245,16.4926489 9.84925448,16.4934668 9.84326925,16.4942127 C9.81463687,16.4978043 9.78523202,16.4997509 9.75581637,16.4999776 L9.74418363,16.4999776 L9.74418363,16.4999776 Z" id="Combined-Shape" fill="#00C569" fill-rule="nonzero"></path>
    </g>
</svg>