<?xml version="1.0" encoding="UTF-8"?>
<svg width="24px" height="24px" viewBox="0 0 24 24" version="1.1" xmlns="http://www.w3.org/2000/svg" xmlns:xlink="http://www.w3.org/1999/xlink">
    <title>icons/view</title>
    <g id="icons/view" stroke="none" stroke-width="1" fill="none" fill-rule="evenodd">
        <g id="fi-rr-eye" transform="translate(0.000000, 3.000000)" fill="#000000" fill-rule="nonzero">
            <path d="M12,0 C18.1897068,0 21.7164003,4.23643048 23.2668259,6.76149499 C24.2443914,8.34262646 24.2443914,10.3404518 23.2668259,11.9215833 C21.7164003,14.4466478 18.1897068,18.6830783 12,18.6830783 C5.81029317,18.6830783 2.28359974,14.4466478 0.733174145,11.9215833 C-0.244391382,10.3404518 -0.244391382,8.34262646 0.733174145,6.76149499 C2.28359974,4.23643048 5.81029317,0 12,0 Z M12,1.99925931 C6.78293282,1.99925931 3.76904941,5.64290941 2.43754271,7.80810724 C1.85675867,8.74790616 1.85675867,9.93517212 2.43754271,10.874971 C3.76904941,13.0401689 6.78293282,16.683819 12,16.683819 C17.2170672,16.683819 20.2309506,13.0401689 21.5624573,10.874971 C22.1432413,9.93517212 22.1432413,8.74790616 21.5624573,7.80810724 C20.2309506,5.63891089 17.2170672,1.99925931 12,1.99925931 Z M12,4.34339086 C14.759031,4.34669575 16.9948434,6.58250815 16.9981483,9.34153914 C16.9981483,12.1019402 14.7604011,14.3396874 12,14.3396874 C9.23959893,14.3396874 7.00185172,12.1019402 7.00185172,9.34153914 C7.00185172,6.58113806 9.23959893,4.34339086 12,4.34339086 Z M12,6.34265017 C10.3437594,6.34265017 9.00111103,7.68529849 9.00111103,9.34153914 C9.00111103,10.9977798 10.3437594,12.3404281 12,12.3404281 C12.7953548,12.3404281 13.5581339,12.0244746 14.1205347,11.4620739 C14.6829355,10.8996731 14.998889,10.1368939 14.998889,9.34153914 C14.998889,7.68529849 13.6562406,6.34265017 12,6.34265017 Z" id="Combined-Shape"></path>
        </g>
    </g>
</svg>