<?xml version="1.0" encoding="UTF-8"?>
<svg width="24px" height="24px" viewBox="0 0 24 24" version="1.1" xmlns="http://www.w3.org/2000/svg" xmlns:xlink="http://www.w3.org/1999/xlink">
    <title>icons/wallet</title>
    <g id="icons/wallet" stroke="none" stroke-width="1" fill="none" fill-rule="evenodd">
        <g id="fi-rr-credit-card" transform="translate(0.000000, 3.000000)" fill="#000000" fill-rule="nonzero">
            <path d="M19,0 C21.7600532,0.00330611633 23.9966939,2.23994685 24,5 L24,5 L24,13 C23.9966939,15.7600532 21.7600532,17.9966939 19,18 L19,18 L5,18 C2.23994685,17.9966939 0.00330611633,15.7600532 0,13 L0,13 L0,5 C0.00330611633,2.23994685 2.23994685,0.00330611633 5,0 L5,0 Z M22,7 L2,7 L2,13 C2,14.6568542 3.34314575,16 5,16 L5,16 L19,16 C20.6568542,16 22,14.6568542 22,13 L22,13 L22,7 Z M5.5,11 C6.32842712,11 7,11.6715729 7,12.5 C7,13.3284271 6.32842712,14 5.5,14 C4.67157288,14 4,13.3284271 4,12.5 C4,11.6715729 4.67157288,11 5.5,11 Z M19,2 L5,2 C3.34314575,2 2,3.34314575 2,5 L2,5 L22,5 C22,3.34314575 20.6568542,2 19,2 L19,2 Z" id="Combined-Shape"></path>
        </g>
    </g>
</svg>