<?xml version="1.0" encoding="UTF-8"?>
<svg width="24px" height="24px" viewBox="0 0 24 24" version="1.1" xmlns="http://www.w3.org/2000/svg" xmlns:xlink="http://www.w3.org/1999/xlink">
    <title>icons/xbox</title>
    <g id="icons/xbox" stroke="none" stroke-width="1" fill="none" fill-rule="evenodd">
        <path d="M5.90038478,2.86660966 C5.88926892,2.87516032 5.88071826,2.88456605 5.87045746,2.89311672 C5.9328773,2.82727661 6.02265926,2.75630611 6.08165883,2.71782813 C7.80376229,1.59854639 9.7935015,1 12.0012826,1 C14.0662676,1 16.0004275,1.5703292 17.6515605,2.56220607 C17.7712698,2.63317657 18.0979051,2.85720393 18.2663531,3.06070971 L18.2663531,3.06156477 C16.6733647,1.30525866 11.9910218,5.0735357 11.9910218,5.0735357 C10.3715263,3.82513895 8.88200086,2.97434801 7.77297991,2.67165455 C6.84608807,2.41769987 6.20478837,2.62975631 5.90038478,2.86660966 Z M20.070543,4.52714835 C20.0218042,4.47327918 19.9687901,4.42283027 19.9200513,4.36725096 C19.5173151,3.9251817 19.0222317,3.81829842 18.5758871,3.84737067 C18.1697307,3.97477555 16.2928602,4.65113296 13.9799059,6.83497221 C13.9799059,6.83497221 16.5835827,9.36682343 18.1782813,11.955109 C19.7712698,14.5433946 20.7238136,16.5775973 20.1380932,19.4010261 C21.915776,17.4471997 23,14.8512185 23,12.0004275 C23,9.11543395 21.8892689,6.48952544 20.070543,4.52714835 Z M16.096195,13.0607097 C15.3899102,12.2680633 14.3390338,11.1325353 12.9512612,9.75245832 C12.6477127,9.45061992 12.3270628,9.13595554 11.9901667,8.81017529 C11.9901667,8.81017529 11.4831124,9.31722959 10.8230013,9.98418127 L10.8230013,9.98332621 C9.97819581,10.8366823 8.88285592,11.9499786 8.27490381,12.599829 C7.19238991,13.7550235 4.09106456,17.3830697 3.91663104,19.4172723 C3.91663104,19.4172723 3.22659256,17.8037623 4.74091492,14.0825139 C5.73022659,11.6498504 8.71953826,7.99700727 9.96793501,6.80675502 C9.96793501,6.80675502 8.82727661,5.55151774 7.39589568,4.68448055 L7.38734502,4.68191535 C7.38734502,4.68191535 7.37109876,4.66908935 7.34544677,4.6528431 C6.65711843,4.24241129 5.90551518,3.92603677 5.18212912,3.88413852 C4.44335186,3.93629756 3.97563061,4.47669944 3.97563061,4.47669944 C2.12954254,6.44506199 1,9.09063702 1,12.0012826 C1,18.0765284 5.9251817,23.0025652 12.0012826,23.0025652 C15.2257375,23.0025652 18.1269773,21.6122274 20.1398033,19.4018811 C20.1389483,19.3984609 19.9080804,17.9482685 18.4279607,15.8678923 C18.0799487,15.3805045 16.8084652,13.8593416 16.096195,13.0607097 Z" id="Shape" fill="#ffffff" fill-rule="nonzero"></path>
    </g>
</svg>