<?xml version="1.0" encoding="UTF-8"?>
<svg width="24px" height="24px" viewBox="0 0 24 24" version="1.1" xmlns="http://www.w3.org/2000/svg" xmlns:xlink="http://www.w3.org/1999/xlink">
    <title>icons/yt</title>
    <g id="icons/yt" stroke="none" stroke-width="1" fill="none" fill-rule="evenodd">
        <g id="youtube" transform="translate(0.999993, 4.000652)" fill="#000000" fill-rule="nonzero">
            <path d="M11.2520933,0 C11.4345697,0.000740169113 11.6220346,0.00186547681 11.8135137,0.00341176911 L11.8135137,0.00341176911 L13.002763,0.0180281066 C13.6136774,0.0281489513 14.2431801,0.0427038862 14.8649622,0.0626607541 L14.8649622,0.0626607541 L15.3782316,0.0805907031 L16.3749625,0.125101001 L16.9702846,0.160164358 L17.5094694,0.200123759 C17.5946171,0.20721948 17.677397,0.214540068 17.7577947,0.222095952 L17.7577947,0.222095952 L18.2114797,0.270338282 C18.5655369,0.313032287 18.8593206,0.362130315 19.0910335,0.418936346 C20.306803,0.762899823 21.2457367,1.73087273 21.5665643,3.02184466 C21.8658979,4.68131425 22.011198,6.36490041 22.0006236,8.04124496 C22.0065928,9.7022583 21.861311,11.3603654 21.5525207,13.0603976 C21.2457367,14.2860769 20.306803,15.2540498 19.0771623,15.6018301 C18.8148285,15.6719892 18.4608335,15.7318117 18.0203093,15.7830237 L18.0203093,15.7830237 L17.5511322,15.8314294 L17.0254093,15.8744782 L16.4442812,15.9125536 L15.8088882,15.9460393 L15.1203708,15.9753187 L14.0855489,16.0089262 L13.0558955,16.0325337 L12.0713602,16.047036 L10.8363676,16.0535986 L9.85211435,16.046228 L8.79191348,16.0296891 L7.69085479,16.0026026 L6.78306833,15.9715852 L6.11447326,15.9424659 L5.206845,15.8907567 L4.6670167,15.8504081 L4.18079226,15.8049409 C4.10428842,15.7969166 4.03006801,15.7886642 3.95815599,15.780176 L3.95815599,15.780176 L3.55458433,15.7263596 L3.2076125,15.6665294 C3.10152168,15.6455439 3.0050639,15.6234964 2.91843889,15.6003273 C1.72834008,15.2746947 0.794899013,14.3508767 0.434592211,13.0678326 C0.135258661,11.408363 -0.0100414581,9.72477685 0.00053865275,8.04977972 C-0.00773093683,6.37616395 0.137559969,4.70531853 0.448635796,2.99291587 C0.755419851,1.76723655 1.69435357,0.799263648 2.92399419,0.451483313 C3.09228358,0.406475687 3.298424,0.365703523 3.54093331,0.328725553 L3.54093331,0.328725553 L3.9317887,0.276049086 C4.00141562,0.267725563 4.07326928,0.259625388 4.14732653,0.251741665 L4.14732653,0.251741665 L4.6179277,0.206981602 C4.70070663,0.199936111 4.78564284,0.193093283 4.87271314,0.186446224 L4.87271314,0.186446224 L5.420559,0.148857927 L6.01851183,0.115637119 L7.00696,0.073270994 C7.85789763,0.0420870637 8.73013157,0.0221976626 9.55514255,0.0109010467 L9.55514255,0.0109010467 L10.7486769,0 Z M11.2481611,1.99999177 L10.7575619,1.99999177 L9.58387878,2.01070353 L8.34057768,2.03401736 C7.92037935,2.04411364 7.49733559,2.05664294 7.08020393,2.07192938 L7.08020393,2.07192938 L6.78495937,2.08330758 L5.95485754,2.12205344 L5.2161498,2.16728788 L4.57905285,2.21846031 L4.21581727,2.25560224 L3.90530996,2.29497542 C3.85812094,2.30171449 3.81325507,2.30853973 3.7707754,2.31544774 L3.7707754,2.31544774 L3.54503644,2.3578619 L3.45458884,2.37976295 C2.92817064,2.52869631 2.52162004,2.94782064 2.40283615,3.4131955 C2.12752076,4.9398808 1.99284907,6.48860523 2.00050673,8.05111742 C1.99069296,9.61408995 2.12537319,11.1746239 2.38046921,12.6164204 C2.52679764,13.1302347 2.93096996,13.5302403 3.44071767,13.6697336 C3.49893655,13.6853038 3.56773997,13.7005101 3.64660881,13.7153308 L3.64660881,13.7153308 L3.91289244,13.7586146 C3.96213271,13.7656286 4.01375956,13.7725407 4.06770808,13.7793484 L4.06770808,13.7793484 L4.41874022,13.8189184 L4.82237788,13.8558501 L5.27550624,13.8900135 L6.04118024,13.9357834 L6.60440814,13.9624571 L7.75085341,14.0035002 L8.83271957,14.0300997 L9.87448186,14.0463582 L11.1578425,14.0536106 L12.5265219,14.0410743 L13.5193937,14.0225129 L14.5406344,13.9944827 L15.3484207,13.9645428 L15.9212761,13.937814 L16.6993987,13.8918828 L17.1591338,13.8576547 L17.5677334,13.8207684 L17.9218331,13.781419 L18.2180688,13.7398018 L18.453076,13.6961118 L18.5465677,13.6735505 C19.0729859,13.5246171 19.4795365,13.1054928 19.5983146,12.6401498 C19.8715062,11.1249604 20.0061694,9.58804328 20.0006498,8.03855984 C20.0104636,6.47558731 19.8757833,4.91505335 19.6123715,3.4421659 C19.4795365,2.91145681 19.0729859,2.49233249 18.5815844,2.35262461 C18.5517345,2.34533569 18.5191168,2.33812891 18.4838002,2.33100753 L18.4838002,2.33100753 L18.2400649,2.28933039 L17.9348644,2.24986047 L17.5715076,2.21275516 L17.1533035,2.17817184 L16.683561,2.14626792 L16.165589,2.11720077 L15.3054389,2.07926333 L14.1862964,2.04369632 C13.9820271,2.03831189 13.7777259,2.03347849 13.5744193,2.02916201 L13.5744193,2.02916201 L12.3747244,2.00919302 L11.2481611,1.99999177 Z M8.05194346,4.04483863 L15.0855826,8.04483863 L8.05194346,12.0448386 L8.05194346,4.04483863 Z" id="Combined-Shape"></path>
        </g>
    </g>
</svg>